SplineFontDB: 3.2
FontName: Ritli-Regular
FullName: Ritli Regular
FamilyName: Ritli
Weight: Regular
Copyright: Modified into Ritli for Lojban/Zbalermorna in 2019 by Jack Humbert.
Version: 0.1
ItalicAngle: 0
UnderlinePosition: -251
UnderlineWidth: 43
Ascent: 750
Descent: 250
InvalidEm: 0
sfntRevision: 0x0000199a
LayerCount: 2
Layer: 0 0 "Back" 1
Layer: 1 0 "Fore" 0
XUID: [1021 647 -312734098 17743]
StyleMap: 0x0040
FSType: 0
OS2Version: 4
OS2_WeightWidthSlopeOnly: 0
OS2_UseTypoMetrics: 0
CreationTime: 1438840825
ModificationTime: 1589915992
PfmFamily: 33
TTFWeight: 400
TTFWidth: 5
LineGap: 0
VLineGap: 0
Panose: 2 15 5 2 2 2 4 3 2 3
OS2TypoAscent: 750
OS2TypoAOffset: 0
OS2TypoDescent: -250
OS2TypoDOffset: 0
OS2TypoLinegap: 198
OS2WinAscent: 816
OS2WinAOffset: 0
OS2WinDescent: 313
OS2WinDOffset: 0
HheadAscent: 750
HheadAOffset: 0
HheadDescent: -250
HheadDOffset: 0
OS2SubXSize: 692
OS2SubYSize: 642
OS2SubXOff: 0
OS2SubYOff: 138
OS2SupXSize: 692
OS2SupYSize: 642
OS2SupXOff: 0
OS2SupYOff: 471
OS2StrikeYSize: 44
OS2StrikeYPos: 272
OS2CapHeight: 750
OS2XHeight: 500
OS2Vendor: 'JH  '
OS2CodePages: 2002019f.00000000
OS2UnicodeRanges: 80000001.10000002.00000000.00000000
Lookup: 4 0 1 "zlmFF" { "zlmFF subtable"  } ['liga' ('latn' <'dflt' > 'DFLT' <'dflt' > ) ]
Lookup: 4 0 1 "zlmSFF" { "zlmSFF subtable"  } ['liga' ('latn' <'dflt' > 'DFLT' <'dflt' > ) ]
Lookup: 4 0 1 "zlmSF" { "zlmSF subtable"  } ['liga' ('latn' <'dflt' > 'DFLT' <'dflt' > ) ]

StartChar: exclam
Encoding: 1 33 1
Width: 333
Flags: W
HStem: -9 105<149 179 149 179.5>
VStem: 111 106<589 622 589 623>
LayerCount: 2
Fore
SplineSet
157 176 m 1
 148 284 l 2
 146 314 140 363 131 422 c 0
 119 497 111 573 111 599 c 0
 111 647 131 676 164 676 c 0
 198 676 217 648 217 596 c 0
 217 582 216 571 215 559 c 2
 170 176 l 1
 157 176 l 1
164 96 m 0
 194 96 219 72 219 42 c 0
 219 12 196 -9 163 -9 c 0
 133 -9 111 13 111 42 c 0
 111 72 134 96 164 96 c 0
EndSplineSet
EndChar

StartChar: question
Encoding: 13 63 2
Width: 444
Flags: W
HStem: -8 105<203 233 203 234> 646 30<170 224.5>
VStem: 49 51<510.5 600> 165 108<28 57.5> 208 17<164 164> 303 92<503 540 500.5 559.5>
LayerCount: 2
Fore
SplineSet
208 164 m 1x6c
 209 208 219 257 238 306 c 2
 266 370 l 2
 290 425 303 480 303 526 c 0
 303 593 255 646 194 646 c 0
 146 646 100 616 100 584 c 0
 100 575 104 567 117 553 c 0
 132 536 138 524 138 510 c 0
 138 485 122 469 97 469 c 0
 65 469 49 490 49 531 c 0
 49 614 119 676 211 676 c 0
 266 676 325 653 359 618 c 0
 382 595 395 559 395 521 c 0
 395 480 382 444 350 395 c 0
 336 374 336 374 290 318 c 0
 253 272 236 232 225 164 c 1
 208 164 l 1x6c
218 97 m 0xf4
 248 97 273 73 273 43 c 0
 273 13 250 -8 218 -8 c 0
 187 -8 165 13 165 42 c 0
 165 73 188 97 218 97 c 0xf4
EndSplineSet
EndChar

StartChar: semicolon
Encoding: 10 59 3
Width: 278
Flags: W
HStem: -6 108<121 142.5> 348 111<121 150.5>
VStem: 81 111<387.5 417.5 387.5 418> 180 39<-17 -12>
LayerCount: 2
Fore
SplineSet
98 -122 m 1xd0
 152 -85 180 -48 180 -16 c 0
 180 -8 174 -2 166 -2 c 0
 165 -2 164 -2 159 -4 c 0
 153 -5 146 -6 139 -6 c 0
 102 -6 80 13 80 46 c 0
 80 80 103 102 139 102 c 0
 184 102 219 64 219 13 c 0
 219 -47 176 -107 107 -141 c 1
 98 -122 l 1xd0
136 459 m 0xe0
 166 459 192 433 192 402 c 0
 192 373 166 348 135 348 c 0
 106 348 81 373 81 402 c 0
 81 434 106 459 136 459 c 0xe0
EndSplineSet
EndChar

StartChar: colon
Encoding: 9 58 4
Width: 278
Flags: W
HStem: -11 111<121 150.5> 348 111<121 150.5>
VStem: 81 111<28.5 58.5 28 59 387.5 417.5>
LayerCount: 2
Fore
SplineSet
136 459 m 0
 166 459 192 433 192 402 c 0
 192 372 166 348 135 348 c 0
 106 348 81 373 81 402 c 0
 81 434 106 459 136 459 c 0
136 100 m 0
 166 100 192 74 192 43 c 0
 192 13 166 -11 135 -11 c 0
 106 -11 81 14 81 43 c 0
 81 75 106 100 136 100 c 0
EndSplineSet
EndChar

StartChar: guillemotleft
Encoding: 18 171 5
Width: 500
Flags: W
HStem: 33 383<251.5 256.5 251 257 443.5 448.5 251 449>
VStem: 42 414<222 408.5>
LayerCount: 2
Fore
SplineSet
107 281 m 2
 113 285 118 290 123 295 c 2
 126 297 l 2
 133 303 141 310 150 318 c 0
 179 344 209 374 211 377 c 0
 228 398 248 416 254 416 c 0
 259 416 264 411 264 406 c 0
 264 393 239 353 210 317 c 0
 177 278 160 257 135 224 c 1
 141 215 142 215 145 211 c 0
 222 113 263 55 263 42 c 0
 263 36 260 33 254 33 c 0
 249 33 247 34 243 39 c 0
 182 99 145 133 73 195 c 2
 42 222 l 1
 107 281 l 2
299 281 m 2
 305 285 310 290 315 295 c 2
 318 297 l 2
 325 303 333 310 342 318 c 0
 371 344 401 374 403 377 c 0
 420 398 440 416 446 416 c 0
 451 416 456 411 456 406 c 0
 456 393 431 353 402 317 c 0
 369 278 352 257 327 224 c 1
 333 215 334 215 337 211 c 0
 414 113 455 55 455 42 c 0
 455 36 452 33 446 33 c 0
 441 33 439 34 435 39 c 0
 374 99 337 133 265 195 c 2
 234 222 l 1
 299 281 l 2
EndSplineSet
EndChar

StartChar: guillemotright
Encoding: 19 187 6
Width: 500
Flags: W
HStem: 33 383<51.5 56.5 243.5 248.5>
VStem: 44 414<222 408.5>
LayerCount: 2
Fore
SplineSet
427 195 m 2
 356 134 316 97 257 39 c 0
 253 34 251 33 246 33 c 0
 240 33 237 36 237 42 c 0
 237 55 278 113 355 211 c 1
 361 218 l 1
 365 224 l 1
 340 257 323 278 290 317 c 0
 261 353 236 393 236 406 c 0
 236 411 241 416 246 416 c 0
 252 416 272 398 289 377 c 0
 291 374 321 344 350 318 c 0
 361 309 369 302 374 297 c 0
 376 296 382 290 393 281 c 2
 458 222 l 1
 427 195 l 2
235 195 m 2
 164 134 124 97 65 39 c 0
 61 34 59 33 54 33 c 0
 48 33 45 36 45 42 c 0
 45 55 86 113 163 211 c 1
 169 218 l 1
 173 224 l 1
 148 257 131 278 98 317 c 0
 69 353 44 393 44 406 c 0
 44 411 49 416 54 416 c 0
 60 416 80 398 97 377 c 0
 99 374 129 344 158 318 c 0
 169 309 177 302 182 297 c 0
 184 296 190 290 201 281 c 2
 266 222 l 1
 235 195 l 2
EndSplineSet
EndChar

StartChar: parenleft
Encoding: 7 40 7
Width: 356
Flags: W
HStem: -177 853<304 307>
VStem: 60 86<204.5 307.5 204.5 310.5>
LayerCount: 2
Fore
SplineSet
316 660 m 1
 244 602 214 566 186 504 c 0
 159 442 146 360 146 255 c 0
 146 154 157 79 181 12 c 0
 208 -62 236 -98 316 -161 c 1
 304 -177 l 1
 252 -145 226 -123 185 -75 c 0
 97 27 60 124 60 252 c 0
 60 369 95 469 166 556 c 0
 203 602 233 627 307 676 c 1
 316 660 l 1
EndSplineSet
EndChar

StartChar: parenright
Encoding: 8 41 8
Width: 356
Flags: W
HStem: -177 853<49 52>
VStem: 210 86<191.5 294.5>
LayerCount: 2
Fore
SplineSet
40 -161 m 1
 112 -103 143 -67 170 -4 c 0
 197 56 210 139 210 244 c 0
 210 345 199 420 175 487 c 0
 147 562 120 597 40 660 c 1
 52 676 l 1
 104 644 130 622 171 574 c 0
 259 472 296 375 296 247 c 0
 296 130 261 30 190 -57 c 0
 153 -103 123 -128 49 -177 c 1
 40 -161 l 1
EndSplineSet
EndChar

StartChar: bracketleft
Encoding: 14 91 9
Width: 333
Flags: W
HStem: -156 25<213 299 213 299> 637 25<209 209 209 299>
VStem: 88 76<-79 593 -79 662 -79 662>
LayerCount: 2
Fore
SplineSet
209 637 m 2
 176 636 165 625 164 593 c 2
 164 -79 l 2
 165 -115 179 -130 213 -131 c 2
 299 -131 l 1
 299 -156 l 1
 88 -156 l 1
 88 662 l 1
 299 662 l 1
 299 637 l 1
 209 637 l 2
EndSplineSet
EndChar

StartChar: bracketright
Encoding: 15 93 10
Width: 333
Flags: W
HStem: -156 25<34 124 34 245 34 124> 637 25<34 120 34 245>
VStem: 169 76<-87 585 585 585>
LayerCount: 2
Fore
SplineSet
124 -131 m 2
 157 -130 168 -119 169 -87 c 2
 169 585 l 2
 168 621 154 636 120 637 c 2
 34 637 l 1
 34 662 l 1
 245 662 l 1
 245 -156 l 1
 34 -156 l 1
 34 -131 l 1
 124 -131 l 2
EndSplineSet
EndChar

StartChar: braceleft
Encoding: 16 123 11
Width: 480
Flags: W
HStem: -181 11<288 350> 669 11<288 350>
VStem: 185 74<-41 121 -47 136 -47 136 378 541 541 541>
LayerCount: 2
Fore
SplineSet
350 -181 m 1
 226 -181 188 -149 185 -41 c 2
 185 136 l 2
 184 206 166 231 100 250 c 1
 166 268 184 293 185 363 c 2
 185 541 l 2
 187 647 226 680 350 680 c 1
 350 669 l 1
 282 653 260 622 259 546 c 2
 259 378 l 2
 258 294 239 268 165 249 c 1
 239 231 258 205 259 121 c 2
 259 -47 l 2
 260 -123 282 -154 350 -170 c 1
 350 -181 l 1
EndSplineSet
EndChar

StartChar: braceright
Encoding: 17 125 12
Width: 480
Flags: W
HStem: -181 11<130 192> 669 11<130 192>
VStem: 221 74<-42 121 121 121 378 540>
LayerCount: 2
Fore
SplineSet
130 680 m 1
 254 680 292 648 295 540 c 2
 295 363 l 2
 296 293 314 268 380 250 c 1
 314 231 296 206 295 136 c 2
 295 -42 l 2
 293 -148 254 -181 130 -181 c 1
 130 -170 l 1
 197 -154 220 -123 221 -47 c 2
 221 121 l 2
 222 205 241 231 315 250 c 1
 241 268 222 293 221 378 c 2
 221 546 l 2
 220 622 197 653 130 669 c 1
 130 680 l 1
EndSplineSet
EndChar

StartChar: quotedbl
Encoding: 2 34 13
Width: 408
Flags: W
HStem: 431 245<109 109 109 130 278 278 278 299>
VStem: 77 85<626.5 646.5> 246 85<626.5 646.5>
LayerCount: 2
Fore
SplineSet
278 431 m 1
 260 528 246 618 246 635 c 0
 246 658 265 676 289 676 c 0
 312 676 331 658 331 636 c 0
 331 607 322 547 306 471 c 0
 304 462 302 448 299 431 c 1
 278 431 l 1
109 431 m 1
 91 528 77 618 77 635 c 0
 77 658 96 676 120 676 c 0
 143 676 162 658 162 636 c 0
 162 607 153 547 137 471 c 0
 135 462 133 448 130 431 c 1
 109 431 l 1
EndSplineSet
EndChar

StartChar: ampersand
Encoding: 6 38 14
Width: 778
Flags: W
HStem: -13 52<227.5 253.5> -13 71<617 631> 405 21<495 711 495 711> 644 32<335 381>
VStem: 42 92<141 181> 202 79<539.5 565> 438 53<531.5 583.5> 559 152<338 405>
LayerCount: 2
Fore
SplineSet
711 405 m 1xbf
 661 399 641 387 617 346 c 2
 591 300 l 2
 560 246 535 209 491 150 c 1
 538 89 589 58 645 58 c 0
 681 58 703 71 735 111 c 1
 750 100 l 1
 720 29 663 -13 599 -13 c 0x7f
 541 -13 492 13 429 78 c 1
 354 12 294 -13 213 -13 c 0
 106 -13 42 44 42 139 c 0
 42 223 93 294 199 355 c 2
 237 377 l 1
 210 452 202 484 202 522 c 0
 202 608 270 676 356 676 c 0
 435 676 491 626 491 555 c 0
 491 483 450 438 336 384 c 1
 380 298 412 247 468 178 c 1
 533 264 559 316 559 360 c 0
 559 390 545 400 495 405 c 1
 495 426 l 1
 711 426 l 1
 711 405 l 1xbf
321 416 m 1
 401 458 438 504 438 559 c 0
 438 608 404 644 358 644 c 0
 312 644 281 611 281 562 c 0
 281 517 291 479 321 416 c 1
252 343 m 1
 165 287 134 244 134 180 c 0
 134 102 192 39 263 39 c 0
 306 39 344 57 404 104 c 1
 347 174 312 229 252 343 c 1
EndSplineSet
EndChar

StartChar: dollar
Encoding: 4 36 15
Width: 500
Flags: W
HStem: 0 28<230 230> 637 27<229 230>
VStem: 44 15<51 181 181 181> 52 74<510.5 533.5> 230 34<-87 0 -87 0 28 293 664 727> 378 79<146 177> 410 15<500 611>
LayerCount: 2
Fore
SplineSet
410 500 m 1xea
 393 585 348 627 264 637 c 1
 264 391 l 1
 385 322 411 301 437 260 c 0
 450 239 457 206 457 170 c 0
 457 122 438 81 405 53 c 0
 369 24 338 12 264 0 c 1
 264 -87 l 1
 230 -87 l 1
 230 0 l 1
 146 3 104 14 44 51 c 1
 44 181 l 1
 59 181 l 1xec
 83 76 136 29 230 28 c 1
 230 310 l 1
 159 350 137 365 108 393 c 0
 68 430 52 465 52 512 c 0
 52 555 72 595 106 622 c 0xda
 139 648 167 657 230 664 c 1
 230 727 l 1
 264 727 l 1
 264 664 l 1
 348 654 391 639 425 611 c 1
 425 500 l 1
 410 500 l 1xea
229 637 m 1xdc
 160 623 126 589 126 534 c 0
 126 487 145 463 229 407 c 1
 229 637 l 1xdc
264 28 m 1
 342 43 378 80 378 146 c 0
 378 208 357 235 264 293 c 1
 264 28 l 1
EndSplineSet
EndChar

StartChar: numbersign
Encoding: 3 35 16
Width: 500
Flags: W
HStem: 216 55<5 112 5 121 179 304 5 170 371 471> 405 55<32 142 32 150 208 333 32 200 399 496>
VStem: 5 491<216 460 271 460>
LayerCount: 2
Fore
SplineSet
471 216 m 1
 362 216 l 1
 331 0 l 1
 273 0 l 1
 304 216 l 1
 170 216 l 1
 137 0 l 1
 79 0 l 1
 112 216 l 1
 5 216 l 1
 5 271 l 1
 121 271 l 1
 142 405 l 1
 32 405 l 1
 32 460 l 1
 150 460 l 1
 181 662 l 1
 239 662 l 1
 208 460 l 1
 341 460 l 1
 371 662 l 1
 429 662 l 1
 399 460 l 1
 496 460 l 1
 496 405 l 1
 391 405 l 1
 371 271 l 1
 471 271 l 1
 471 216 l 1
200 405 m 1
 179 271 l 1
 313 271 l 1
 333 405 l 1
 200 405 l 1
EndSplineSet
EndChar

StartChar: less
Encoding: 11 60 17
Width: 564
Flags: W
HStem: 54 505<530 530>
VStem: 35 495<54 335 54 335>
LayerCount: 2
Fore
SplineSet
35 277 m 1
 35 335 l 1
 530 559 l 1
 530 501 l 1
 100 306 l 1
 530 111 l 1
 530 54 l 1
 35 277 l 1
EndSplineSet
EndChar

StartChar: greater
Encoding: 12 62 18
Width: 564
Flags: W
HStem: 54 505<35 35>
VStem: 35 495<54 335 111 335 277 559 277 559>
LayerCount: 2
Fore
SplineSet
35 111 m 1
 465 306 l 1
 35 501 l 1
 35 559 l 1
 530 335 l 1
 530 277 l 1
 35 54 l 1
 35 111 l 1
EndSplineSet
EndChar

StartChar: percent
Encoding: 5 37 19
Width: 833
Flags: W
HStem: -24 27<625.5 666 625.5 689> 306 26<626.5 667.5> 317 24<162.5 204 162.5 226.5> 648 27<164.5 205.5>
VStem: 44 78<446.5 547> 248 77<444.5 542.5> 506 78<105 204.5 105 204.5> 710 77<104.5 201>
LayerCount: 2
Fore
SplineSet
636 676 m 1xbf
 249 -13 l 1
 201 -13 l 1
 593 676 l 1
 636 676 l 1xbf
646 332 m 0xdf
 727 332 787 255 787 152 c 0
 787 48 730 -24 648 -24 c 0
 567 -24 506 52 506 153 c 0
 506 256 566 332 646 332 c 0xdf
647 306 m 0
 606 306 584 254 584 155 c 0
 584 55 605 3 646 3 c 0
 686 3 710 58 710 151 c 0
 710 251 688 306 647 306 c 0
188 675 m 0
 269 675 325 599 325 491 c 0
 325 388 268 317 185 317 c 0xbf
 103 317 44 392 44 495 c 0
 44 599 104 675 188 675 c 0
186 648 m 0
 143 648 122 600 122 501 c 0
 122 392 142 341 183 341 c 0xbf
 225 341 248 396 248 493 c 0
 248 592 225 648 186 648 c 0
EndSplineSet
EndChar

StartChar: NameMe.66773
Encoding: 256 -1 20
Width: 551
VWidth: 988
Flags: W
HStem: 0 21G<70 126.5 398 487> 480 20G<422 487>
VStem: 70 88<144.421 728> 398 89<0 357.625>
LayerCount: 2
Fore
SplineSet
70 728 m 1
 158 728 l 1
 158 192 l 2
 157 169 l 0
 157 161 157 153 156 144 c 1
 400 484 l 2
 402 486 404 489 407 492 c 0
 409 494 412 496 414 497 c 0
 416 498 420 500 424 500 c 0
 428 500 433 500 437 500 c 2
 487 500 l 1
 487 0 l 1
 398 0 l 1
 398 312 l 2
 399 334 l 0
 399 342 399 350 400 358 c 1
 156 17 l 2
 154 14 149 10 141 4 c 0
 137 1 131 0 122 0 c 2
 70 0 l 1
 70 728 l 1
EndSplineSet
EndChar

StartChar: NameMe.66774
Encoding: 257 -1 21
Width: 551
VWidth: 988
Flags: W
HStem: 0 21G<70 126.5> 480 20G<70 158 422 487>
VStem: 70 88<144.421 500> 398 89<-169 357.625>
LayerCount: 2
Fore
SplineSet
70 500 m 1
 158 500 l 1
 158 192 l 2
 158 185 157 177 157 169 c 0
 157 161 157 153 156 144 c 1
 400 484 l 2
 402 486 404 489 407 492 c 0
 409 494 412 496 414 497 c 0
 416 498 420 500 424 500 c 0
 428 500 433 500 437 500 c 2
 487 500 l 1
 487 -169 l 1
 398 -169 l 1
 398 312 l 2
 398 319 399 326 399 334 c 0
 399 342 399 350 400 358 c 1
 156 17 l 2
 154 14 149 10 141 4 c 0
 137 1 131 0 122 0 c 2
 70 0 l 1
 70 500 l 1
EndSplineSet
EndChar

StartChar: NameMe.66777
Encoding: 258 -1 22
Width: 415
VWidth: 988
Flags: W
HStem: 0 21G<101 125.5 298.5 357> 480 20G<269 357>
VStem: 70 88<64 728> 269 88<109.359 500> 281 76<0.0703125 72>
LayerCount: 2
Fore
SplineSet
158 64 m 1xe8
 175 67 192 73 207 81 c 0
 230 93 250 110 269 132 c 1
 269 500 l 1
 357 500 l 1xf0
 357 0 l 1
 305 0 l 2
 292 0 284 6 281 18 c 1
 274 72 l 1
 252 48 228 29 201 16 c 0
 174 3 143 -3 108 -3 c 0
 94 -3 82 -2 70 -0 c 1
 70 32 70 32 70 728 c 1
 158 728 l 1
 158 64 l 1xe8
EndSplineSet
EndChar

StartChar: NameMe.66775
Encoding: 259 -1 23
Width: 415
VWidth: 988
Flags: W
HStem: 0 21G<70 150.5> 480 20G<272 357>
VStem: 70 88<76 728> 272 85<126.563 500>
LayerCount: 2
Fore
SplineSet
158 76 m 17
 234 89 272 132 272 204 c 10
 272 500 l 1
 357 500 l 1
 357 202 l 2
 357 141 335 92 292 56 c 0
 248 19 188 0 113 0 c 2
 70 0 l 1
 70 728 l 1
 158 728 l 1
 158 76 l 17
EndSplineSet
EndChar

StartChar: NameMe.66778
Encoding: 260 -1 24
Width: 415
VWidth: 988
Flags: W
HStem: 0 21G<70 158> 480 20G<70 128.5 301.5 326>
VStem: 70 88<0 391.641> 70 76<428 499.93> 269 88<-169 436>
LayerCount: 2
Fore
SplineSet
269 436 m 1xd8
 252 433 235 428 220 420 c 0
 197 408 177 391 158 369 c 1
 158 0 l 1
 70 0 l 1xe8
 70 500 l 1
 122 500 l 2
 135 500 143 494 146 482 c 1
 153 428 l 1
 175 452 199 471 226 484 c 0
 253 497 284 504 319 504 c 0
 333 504 345 503 357 501 c 1
 357 498 357 498 357 -169 c 1
 269 -169 l 1
 269 436 l 1xd8
EndSplineSet
EndChar

StartChar: NameMe.66776
Encoding: 261 -1 25
Width: 415
VWidth: 988
Flags: W
HStem: 0 21G<70 155> 480 20G<276.5 357>
VStem: 70 85<0 372.088> 269 88<-169 424>
LayerCount: 2
Fore
SplineSet
269 424 m 17
 193 411 155 368 155 296 c 10
 155 0 l 1
 70 0 l 1
 70 299 l 2
 70 360 92 409 135 445 c 0
 179 482 239 500 314 500 c 2
 357 500 l 1
 357 -169 l 1
 269 -169 l 1
 269 424 l 17
EndSplineSet
EndChar

StartChar: NameMe.66779
Encoding: 262 -1 26
Width: 550
VWidth: 988
Flags: W
HStem: 0 78<158 275.633> 480 20G<70 158 398 487>
VStem: 70 88<78 500> 398 89<178.004 500> 409 78<0.287109 140>
LayerCount: 2
Fore
SplineSet
403 140 m 1xe8
 356 47 272 0 150 0 c 0
 110 0 110 0 70 0 c 1
 70 77 l 2
 70 466 l 0
 70 500 l 1
 158 500 l 0
 158 78 l 0
 162 78 l 2
 267 78 338 111 377 178 c 0
 385 191 392 207 398 224 c 1
 398 500 l 1
 487 500 l 1xf0
 487 0 l 1
 436 0 l 2
 419 0 410 8 409 24 c 2
 403 140 l 1xe8
EndSplineSet
EndChar

StartChar: NameMe.66780
Encoding: 263 -1 27
Width: 550
VWidth: 988
Flags: W
HStem: 0 77<158 218.839> 480 20G<70 158 403.5 487>
VStem: 70 88<77 500> 398 89<0 359>
LayerCount: 2
Fore
SplineSet
487 500 m 1
 487 0 l 1
 443 0 442 0 398 0 c 1
 398 282 l 2
 398 316 399 338 400 347 c 0
 401 351 402 355 402 359 c 257
 369 120 281 0 139 0 c 2
 70 0 l 1
 70 500 l 1
 158 500 l 1
 158 77 l 1
 258 77 334 213 384 483 c 0
 386 495 395 500 412 500 c 2
 487 500 l 1
EndSplineSet
EndChar

StartChar: NameMe.66781
Encoding: 264 -1 28
Width: 359
VWidth: 988
Flags: W
HStem: 0 21G<70 158> 423 86<222.581 345.904>
VStem: 70 88<0 362.216 401 728>
LayerCount: 2
Fore
SplineSet
158 728 m 5
 158 460 l 4
 158 401 l 5
 173 435 191 461 213 480 c 4
 235 499 262 509 295 509 c 4
 306 509 316 508 326 506 c 4
 336 504 344 501 352 496 c 5
 346 430 l 5
 344 421 339 417 331 417 c 4
 326 417 319 418 310 420 c 4
 301 422 292 423 281 423 c 4
 265 423 250 421 238 416 c 4
 226 411 215 404 205 395 c 4
 195 386 187 374 179 361 c 4
 171 348 165 332 158 315 c 5
 158 0 l 5
 100 0 l 4
 70 0 l 5
 70 728 l 5
 158 728 l 5
EndSplineSet
EndChar

StartChar: NameMe.66782
Encoding: 265 -1 29
Width: 359
VWidth: 988
Flags: W
HStem: -7 87<26.0967 149.419> 480 20G<214 302>
VStem: 214 88<-169 101 139.784 500>
LayerCount: 2
Fore
SplineSet
214 -169 m 1
 214 42 l 0
 214 101 l 1
 199 67 181 41 159 22 c 0
 137 3 110 -7 77 -7 c 0
 66 -7 56 -5 46 -3 c 0
 36 -1 28 2 20 7 c 1
 26 73 l 1
 28 82 34 85 42 85 c 0
 47 85 53 85 62 83 c 0
 71 81 80 80 91 80 c 0
 107 80 122 82 134 87 c 0
 146 92 157 98 167 107 c 0
 177 116 185 128 193 141 c 0
 201 154 207 170 214 187 c 1
 214 500 l 1
 272 500 l 0
 302 500 l 1
 302 -169 l 1
 214 -169 l 1
EndSplineSet
EndChar

StartChar: NameMe.66783
Encoding: 266 -1 30
Width: 471
VWidth: 988
Flags: W
HStem: -174 68<223.104 376.686> 440 68<226.167 378.785>
VStem: 56 90<-1.39722 336.01>
LayerCount: 2
Fore
SplineSet
432 412 m 2
 429 408 427 405 424 403 c 0
 421 401 419 400 414 400 c 0
 409 400 403 402 397 406 c 0
 391 410 384 415 376 420 c 0
 368 425 357 430 345 434 c 0
 333 438 319 440 302 440 c 0
 276 440 253 435 234 424 c 0
 215 413 198 397 185 375 c 0
 172 353 162 324 156 290 c 0
 150 256 146 214 146 167 c 0
 146 117 150 75 157 40 c 0
 164 5 174 -23 187 -45 c 0
 200 -67 217 -82 236 -92 c 0
 255 -102 277 -106 302 -106 c 0
 321 -106 336 -104 349 -99 c 0
 362 -94 371 -88 380 -82 c 0
 389 -76 396 -69 402 -64 c 0
 408 -59 414 -57 420 -57 c 0
 424 -57 427 -58 430 -59 c 0
 433 -60 435 -62 437 -65 c 2
 461 -97 l 1
 450 -111 439 -122 425 -132 c 0
 411 -142 396 -150 381 -156 c 0
 366 -162 350 -167 334 -170 c 0
 318 -173 302 -174 287 -174 c 0
 253 -174 221 -168 193 -156 c 0
 165 -144 141 -124 121 -97 c 0
 101 -70 84 -35 73 7 c 0
 62 49 56 101 56 162 c 0
 56 276 76 361 117 420 c 0
 158 479 217 508 294 508 c 0
 328 508 358 502 385 491 c 0
 412 480 435 464 456 443 c 1
 432 412 l 2
EndSplineSet
EndChar

StartChar: NameMe.66784
Encoding: 267 -1 31
Width: 446
VWidth: 988
Flags: W
HStem: -179 67<166.628 313.656> 432 68<29 293>
VStem: 30 75<-50.9284 116.254>
LayerCount: 2
Fore
SplineSet
293 432 m 1
 29 432 l 1
 29 500 l 1
 406 500 l 1
 406 464 l 2
 406 460 405 455 403 449 c 0
 401 442 398 436 394 432 c 2
 166 173 l 2
 125 126 105 80 105 35 c 3
 105 -14 119 -50 146 -75 c 0
 174 -100 205 -112 241 -112 c 3
 277 -112 313 -96 351 -64 c 1
 366 -52 379 -54 390 -69 c 2
 411 -97 l 1
 362 -152 303 -179 234 -179 c 0
 177 -179 130 -161 91 -126 c 0
 50 -89 30 -41 30 19 c 3
 30 91 56 157 107 217 c 2
 293 432 l 1
EndSplineSet
EndChar

StartChar: py
Encoding: 20 60800 32
Width: 452
GlyphClass: 2
Flags: W
HStem: 0 15<21 64.4431> 623 16<19 25> 663 20G<152 182>
VStem: 98 84<82.0538 622.078> 341 81<317.242 432.01>
AnchorPoint: "Top" 376 656 basechar 0
AnchorPoint: "Bottom" 226 0 basechar 0
LayerCount: 2
Fore
SplineSet
306 240 m 0
 329 280 341 307 341 330 c 0
 341 345 340 349 331 385 c 0
 329 393 328 403 328 410 c 0
 328 440 348 463 375 463 c 0
 402 463 422 439 422 405 c 0
 422 378 416 338 390 300 c 2
 182 0 l 1
 21 0 l 1
 21 15 l 1
 83 19 97 33 98 87 c 2
 98 564 l 2
 98 611 88 625 56 625 c 0
 48 625 36 624 25 623 c 2
 19 623 l 1
 19 639 l 1
 88 656 126 666 178 683 c 1
 182 681 l 1
 182 82 l 1
 212 99 245 133 306 240 c 0
EndSplineSet
EndChar

StartChar: ty
Encoding: 21 60801 33
Width: 538
GlyphClass: 2
Flags: W
HStem: 0 16<18 57.6985 191.502 234 294 335.476 478.812 512> 426 57<236.885 339.667> 623 16<19 30.7671> 663 20G<144 166>
VStem: 82 84<26.0039 381.445 395 621.178> 365 84<28.342 399.594>
AnchorPoint: "Top" 344 658 basechar 0
AnchorPoint: "Bottom" 277 0 basechar 0
LayerCount: 2
Fore
SplineSet
512 0 m 1
 294 0 l 1
 294 16 l 1
 354 21 365 33 365 107 c 2
 365 315 l 2
 365 388 339 426 285 426 c 0
 244 426 208 406 166 360 c 1
 166 102 l 2
 168 31 176 20 234 15 c 1
 234 0 l 1
 18 0 l 1
 18 15 l 1
 75 22 80 30 82 102 c 2
 82 573 l 2
 82 616 74 624 31 624 c 0
 26 624 23 624 19 623 c 1
 19 639 l 1
 46 647 l 2
 102 663 127 671 161 683 c 1
 166 680 l 1
 166 395 l 1
 212 455 258 483 320 483 c 0
 406 483 449 426 449 316 c 2
 449 107 l 2
 451 33 456 25 512 16 c 1
 512 0 l 1
EndSplineSet
EndChar

StartChar: ky
Encoding: 22 60802 34
Width: 519
GlyphClass: 2
Flags: W
HStem: 0 15<21 64.4431 264 314.152 456.432 501> 457 15<455.707 501> 623 16<19 25> 663 20G<152 182>
VStem: 98 84<82.0538 622.078> 343 84<26.2667 232 269.266 446.365>
AnchorPoint: "Top" 393 658 basechar 0
AnchorPoint: "Bottom" 268 0 basechar 0
LayerCount: 2
Fore
SplineSet
21 15 m 1
 83 19 97 33 98 87 c 2
 98 564 l 2
 98 611 88 625 56 625 c 0
 48 625 36 624 25 623 c 2
 19 623 l 1
 19 639 l 1
 88 656 126 666 178 683 c 1
 182 681 l 1
 182 82 l 1
 212 99 245 133 306 240 c 0
 329 280 343 317 343 340 c 2
 343 364 l 1
 343 370 l 1
 343 395 l 1
 343 429 l 1
 343 442 l 1
 343 472 l 1
 501 472 l 1
 501 457 l 1
 445 453 432 446 428 400 c 0
 427 391 427 382 427 370 c 2
 427 102 l 2
 428 29 435 20 501 15 c 1
 501 0 l 1
 264 0 l 1
 264 15 l 1
 332 18 343 28 343 102 c 2
 343 232 l 1
 182 0 l 1
 21 0 l 1
 21 15 l 1
EndSplineSet
EndChar

StartChar: fy
Encoding: 23 60803 35
Width: 444
GlyphClass: 2
Flags: W
HStem: 0 25<139 366.09>
VStem: 190 84<189.218 419.292> 419 19<105.024 143.474>
AnchorPoint: "Top" 227 658 basechar 0
AnchorPoint: "Bottom" 228 0 basechar 0
LayerCount: 2
Fore
SplineSet
423 0 m 1
 27 0 l 1
 27 16 l 1
 71 64 190 115 190 320 c 2
 190 364 l 1
 190 364 181 424 157 424 c 0
 148 424 135 423 123 421 c 2
 115 420 l 1
 115 435 l 1
 270 490 l 1
 274 487 l 1
 274 290 l 2
 274 126 170 54 139 25 c 1
 284 25 l 2
 385 25 400 47 419 146 c 1
 438 142 l 1
 423 0 l 1
EndSplineSet
EndChar

StartChar: ly
Encoding: 24 60804 36
Width: 474
GlyphClass: 2
Flags: W
HStem: -10 72<206.686 326.024> 457 26<207.336 306.708>
VStem: 40 78<163.577 337.671> 333 99<342.536 406>
AnchorPoint: "Top" 258 656 basechar 0
AnchorPoint: "Bottom" 263 0 basechar 0
LayerCount: 2
Fore
SplineSet
446 155 m 5
 415 93 395 63 367 39 c 4
 329 7 287 -10 239 -10 c 4
 123 -10 40 88 40 223 c 4
 40 307 69 378 122 425 c 4
 165 462 218 483 270 483 c 4
 358 483 432 434 432 375 c 4
 432 351 410 331 382 331 c 4
 359 331 342 351 333 382 c 6
 327 406 l 6
 316 445 302 457 263 457 c 4
 178 457 118 380 118 271 c 4
 118 150 187 62 284 62 c 4
 344 62 384 89 435 162 c 5
 446 155 l 5
EndSplineSet
EndChar

StartChar: sy
Encoding: 25 60805 37
Width: 499
GlyphClass: 2
Flags: W
HStem: -10 37<194.114 307.19> 444 39<188.629 313.402> 623 16<287 308.626> 663 20G<410 439>
VStem: 27 94<116.939 344.156> 355 84<97.7405 410.373 437 621.228>
AnchorPoint: "Top" 136 658 basechar 0
AnchorPoint: "Bottom" 276 0 basechar 0
LayerCount: 2
Fore
SplineSet
355 391 m 5
 315 430 285 444 247 444 c 0
 170 444 121 367 121 245 c 0
 121 110 172 27 252 27 c 0
 287 27 318 45 335 76 c 0
 350 100 355 129 355 176 c 6
 355 391 l 5
439 681 m 5
 439 251 l 6
 439 156 427 102 398 63 c 0
 363 17 305 -10 239 -10 c 0
 112 -10 27 87 27 233 c 0
 27 375 121 483 243 483 c 0
 288 483 318 470 355 437 c 5
 355 582 l 6
 354 615 343 624 309 624 c 4
 301 624 295 624 287 623 c 5
 287 639 l 5
 351 656 386 666 434 683 c 5
 439 681 l 5
EndSplineSet
EndChar

StartChar: cy
Encoding: 26 60806 38
Width: 560
GlyphClass: 2
Flags: W
HStem: 0 16<30 73.437 210.334 253 317 358.269 498.277 535> 418 18<28 56.6406> 425 57<260.437 365.103> 623 16<322 343.626> 663 20G<445 474>
VStem: 100 83<26.6968 381.016> 386 87<26.9228 404.776 435 618.16>
AnchorPoint: "Top" 138 658 basechar 0
AnchorPoint: "Bottom" 283 0 basechar 0
LayerCount: 2
Fore
SplineSet
473 143 m 2xbe
 473 57 l 1
 479 29 495 20 535 16 c 1
 535 0 l 1
 473 0 l 1
 386 0 l 1
 317 0 l 1
 317 16 l 1
 362 18 380 29 386 69 c 1
 386 315 l 2
 386 362 379 392 360 409 c 0
 347 420 329 425 307 425 c 0xbe
 300 425 293 425 287 424 c 0
 259 421 239 409 190 371 c 0
 188 369 185 367 183 365 c 2
 183 70 l 2
 183 33 200 19 253 16 c 1
 253 0 l 1
 183 0 l 1
 100 0 l 1
 30 0 l 1
 30 16 l 1
 88 19 100 33 100 94 c 2
 100 355 l 2
 100 382 98 399 90 409 c 0
 86 414 80 418 72 420 c 0
 70 420 68 421 65 422 c 0
 62 422 59 422 56 422 c 0
 54 422 51 422 49 422 c 0
 43 421 37 420 28 418 c 1
 28 436 l 1xde
 66 448 105 459 142 472 c 0
 152 475 162 479 173 483 c 1
 180 481 l 1
 180 398 l 1
 213 429 225 436 243 449 c 0
 274 471 302 482 333 482 c 3
 361 482 385 453 390 435 c 1
 390 582 l 2
 390 582 378 624 344 624 c 0
 336 624 330 624 322 623 c 1
 322 639 l 1
 386 656 421 666 469 683 c 1
 474 681 l 1
 473 143 l 2xbe
EndSplineSet
EndChar

StartChar: my
Encoding: 27 60807 39
Width: 460
VWidth: 0
GlyphClass: 2
Flags: W
HStem: 0 80<150 395> 463 20G<226.911 281.098>
AnchorPoint: "Top" 235 657 basechar 0
AnchorPoint: "Bottom" 238 0 basechar 0
LayerCount: 2
Fore
SplineSet
319 240 m 2
 150 80 l 2
 347 80 l 0
 397 80 409 100 418 116 c 0
 431 116 l 1
 395 0 l 1
 50 0 l 1
 50 22 l 2
 211 191 l 2
 363 318 288 409 250 421 c 0
 219 431 197 445 117 396 c 0
 89 379 82 370 63 331 c 0
 46 333 l 1
 50 472 l 1
 73 474 l 1
 77 477 91.8181856258 423.266826656 124 445 c 0
 160.245258704 469.477317567 200.821289062 483 253 483 c 27
 309.1953125 483 353.721176336 465.264191364 384 423 c 0
 432 356 386 291 319 240 c 2
EndSplineSet
EndChar

StartChar: xy
Encoding: 28 60808 40
Width: 523
GlyphClass: 2
Flags: W
HStem: -10 25<227.901 321.348> 458 25<198.699 295.563>
VStem: 30 92<144.248 347.558> 401 92<137.905 341.333>
AnchorPoint: "Top" 264 657 basechar 0
AnchorPoint: "Bottom" 281 0 basechar 0
LayerCount: 2
Fore
SplineSet
262 483 m 0
 396 483 493 385 493 246 c 0
 493 100 392 -10 260 -10 c 0
 128 -10 30 95 30 238 c 0
 30 383 124 483 262 483 c 0
248 458 m 0
 173 458 122 390 122 290 c 0
 122 216 139 138 169 84 c 0
 191 42 232 15 273 15 c 0
 352 15 401 89 401 209 c 0
 401 353 336 458 248 458 c 0
EndSplineSet
EndChar

StartChar: denpabu
Encoding: 29 60809 41
Width: 256
VWidth: 988
GlyphClass: 2
Flags: W
HStem: 199 124<81.6639 173.735>
VStem: 66 124<213.33 306.735>
AnchorPoint: "Top" 127 657 basechar 0
AnchorPoint: "Bottom" 129 0 basechar 0
LayerCount: 2
Fore
SplineSet
66 260 m 0
 66 269 68 277 71 285 c 0
 74 293 79 298 84 304 c 0
 89 310 95 315 103 318 c 0
 111 321 118 323 127 323 c 256
 136 323 144 321 152 318 c 0
 160 315 165 310 171 304 c 0
 177 298 182 293 185 285 c 0
 188 277 190 269 190 260 c 0
 190 251 188 243 185 236 c 0
 182 229 177 222 171 216 c 0
 165 210 160 206 152 203 c 0
 144 200 136 199 127 199 c 256
 118 199 111 200 103 203 c 0
 95 206 89 210 84 216 c 0
 79 222 74 229 71 236 c 0
 68 243 66 251 66 260 c 0
EndSplineSet
Substitution2: "Single Substitution lookup 73 subtable" denpabu.cas
EndChar

StartChar: yhy
Encoding: 30 60810 42
Width: 278
GlyphClass: 2
Flags: W
HStem: 0 15<23 73.1517 215.432 260>
VStem: 102 84<26.2667 422.521>
AnchorPoint: "Top" 146 656 basechar 0
AnchorPoint: "Bottom" 149 0 basechar 0
LayerCount: 2
Fore
SplineSet
23 15 m 1
 91 18 102 28 102 102 c 2
 102 364 l 2
 102 408 93 424 69 424 c 0
 60 424 47 423 35 421 c 2
 27 420 l 1
 27 435 l 1
 182 490 l 1
 186 487 l 1
 186 102 l 2
 187 29 194 20 260 15 c 1
 260 0 l 1
 23 0 l 1
 23 15 l 1
EndSplineSet
Substitution2: "Single Substitution lookup 75 subtable" yhy.cas
Substitution2: "Single Substitution lookup 74 subtable" yhy.cas
EndChar

StartChar: cnimahobu
Encoding: 31 60811 43
Width: 403
VWidth: 0
GlyphClass: 2
Flags: HW
HStem: 0 22<215.952 246.383 350.469 378.952> 246 145<42.5679 106.705> 447 23<347.839 375.952>
VStem: 255.952 80<27.5957 414>
LayerCount: 2
Fore
SplineSet
82 391 m 3
 136 391 140.072265625 324.458984375 110 302 c 1
 211 321.836914062 255.952148438 470 255.952148438 470 c 1
 375.952148438 470 l 1
 375.952148438 447 l 3
 349.098632812 447 335.952148438 426 335.952148438 403 c 16
 335.952148438 66 l 3
 335.952148438 50 346.952148438 22 378.952148438 22 c 0
 378.952148438 0 l 1
 215.952148438 0 l 1
 215.952148438 20 l 3
 246.952148438 20 255.952148438 42 255.952148438 66 c 3
 255.952148438 190 255.952148438 414 255.952148438 414 c 1
 255.952148438 414 181.952148438 246 98.9521484375 246 c 3
 55.9521484375 246 24 273 24 312.744140625 c 3
 24 370 57 391 82 391 c 3
EndSplineSet
EndChar

StartChar: patonga
Encoding: 32 60812 44
Width: 0
VWidth: 988
GlyphClass: 4
Flags: W
HStem: -204 141
VStem: -359 198
AnchorPoint: "Bottom" -260 0 mark 0
LayerCount: 2
Fore
SplineSet
-161 -63 m 5
 -276 -190 l 6
 -281 -195 -286 -199 -290 -201 c 4
 -294 -203 -300 -204 -307 -204 c 6
 -359 -204 l 5
 -286 -84 l 6
 -281 -76 -276 -71 -271 -68 c 4
 -266 -65 -258 -63 -247 -63 c 6
 -161 -63 l 5
EndSplineSet
EndChar

StartChar: retonga
Encoding: 33 60813 45
Width: 0
VWidth: 988
GlyphClass: 4
Flags: W
HStem: -204 141
VStem: -348 196
AnchorPoint: "Bottom" -250 0 mark 0
LayerCount: 2
Fore
SplineSet
-265 -63 m 6
 -254 -63 -245 -65 -240 -68 c 4
 -235 -71 -231 -76 -226 -84 c 6
 -152 -204 l 5
 -202 -204 l 6
 -209 -204 -215 -203 -219 -201 c 4
 -223 -199 -227 -195 -232 -190 c 6
 -348 -63 l 5
 -265 -63 l 6
EndSplineSet
EndChar

StartChar: citonga
Encoding: 34 60814 46
Width: 0
VWidth: 988
GlyphClass: 4
Flags: W
HStem: -199 130
VStem: -420 302
AnchorPoint: "Bottom" -269 0 mark 0
LayerCount: 2
Fore
SplineSet
-118 -199 m 5
 -177 -199 l 6
 -181 -199 -183 -199 -187 -197 c 4
 -191 -195 -194 -194 -196 -192 c 6
 -260 -125 l 6
 -262 -123 -263 -122 -264 -120 c 4
 -265 -118 -266 -117 -268 -115 c 5
 -270 -117 -271 -118 -272 -120 c 4
 -273 -122 -274 -123 -276 -125 c 6
 -340 -192 l 6
 -342 -194 -344 -195 -348 -197 c 4
 -352 -199 -355 -199 -359 -199 c 6
 -420 -199 l 5
 -310 -69 l 5
 -228 -69 l 5
 -118 -199 l 5
EndSplineSet
EndChar

StartChar: votonga
Encoding: 35 60815 47
Width: 0
VWidth: 988
GlyphClass: 4
Flags: W
HStem: -194 130
VStem: -421 302
AnchorPoint: "Bottom" -270 0 mark 0
LayerCount: 2
Fore
SplineSet
-119 -64 m 1
 -229 -194 l 1
 -311 -194 l 1
 -421 -64 l 1
 -360 -64 l 2
 -356 -64 -353 -64 -349 -66 c 0
 -345 -68 -343 -69 -341 -71 c 2
 -277 -138 l 2
 -275 -140 -274 -141 -273 -143 c 0
 -272 -145 -271 -146 -269 -148 c 1
 -267 -146 -266 -145 -265 -143 c 0
 -264 -141 -263 -140 -261 -138 c 2
 -197 -71 l 2
 -195 -69 -192 -68 -188 -66 c 0
 -184 -64 -182 -64 -178 -64 c 2
 -119 -64 l 1
EndSplineSet
EndChar

StartChar: by
Encoding: 36 60816 48
Width: 419
GlyphClass: 2
Flags: W
HStem: -217 14<170 204.207 381.962 406> 451 20G<245.316 343>
VStem: 19 81<34.9897 149.758> 259 84<-183.581 389>
AnchorPoint: "Top" 302 657 basechar 0
AnchorPoint: "Bottom" 67 0 basechar 0
LayerCount: 2
Fore
SplineSet
135 227 m 0
 112 187 100 160 100 137 c 0
 100 122 101 118 110 82 c 0
 112 74 113 64 113 57 c 0
 113 27 93 4 66 4 c 0
 39 4 19 28 19 62 c 0
 19 89 25 129 51 167 c 2
 259 471 l 1
 343 471 l 1
 343 -141 l 2
 343 -175 352 -191 406 -203 c 1
 406 -217 l 1
 170 -217 l 1
 170 -200 l 1
 240 -196 259 -180 259 -124 c 2
 258 68 l 1
 259 389 l 1
 229 372 196 334 135 227 c 0
EndSplineSet
EndChar

StartChar: dy
Encoding: 37 60817 49
Width: 536
GlyphClass: 2
Flags: W
HStem: -217 14<290 323.093 499.049 526> -10 61<202.428 305.44> 457 15<25 63.176 302 342.031>
VStem: 90 83<79.715 447.394> 380 83<-181.768 70 85.8838 444.17>
AnchorPoint: "Top" 270 657 basechar 0
AnchorPoint: "Bottom" 221 0 basechar 0
LayerCount: 2
Fore
SplineSet
526 -217 m 1
 290 -217 l 1
 290 -200 l 1
 357 -197 379 -175 379 -131 c 27
 379 -53 378 70 378 70 c 1
 340 35 l 2
 311 8 261 -10 217 -10 c 0
 140 -10 90 44 90 126 c 2
 90 390 l 2
 90 440 74 455 25 457 c 1
 25 472 l 1
 173 472 l 1
 173 131 l 2
 173 87 212 51 263 51 c 0
 299 51 332 63 360 87 c 0
 375 98 380 113 380 142 c 2
 380 388 l 2
 380 440 368 451 302 454 c 1
 302 472 l 1
 463 472 l 1
 463 -134 l 3
 463 -190 478 -192 526 -203 c 0
 526 -217 l 1
EndSplineSet
EndChar

StartChar: gy
Encoding: 38 60818 50
Width: 527
GlyphClass: 2
Flags: W
HStem: -217 17<253 303.331 449.654 489> 0 16<30 73.9417> 457 15<459.557 503>
VStem: 102 79<27.1552 93 127 197.736 333 404.897> 342 84<-177.574 -131 385 390>
AnchorPoint: "Top" 270 657 basechar 0
AnchorPoint: "Bottom" 146 0 basechar 0
LayerCount: 2
Fore
SplineSet
102 93 m 1
 102 32 88 19 30 16 c 1
 30 0 l 1
 100 0 l 1
 181 0 l 2
 181 68 l 2
 181 127 l 2
 180.609935017 150.013834003 195 187 218 227 c 0
 279 334 312 373 342 390 c 5
 342 -79 l 1
 342 -131 l 2
 342 -175 320 -197 253 -200 c 1
 253 -217 l 1
 489 -217 l 1
 489 -203 l 1
 459 -196 443 -193 434 -178 c 0
 429 -169 426 -155 426 -134 c 2
 426 -97 l 1
 426 -55 l 1
 426 385 l 6
 427 439 441 453 503 457 c 5
 503 472 l 5
 342 472 l 5
 181 235 l 1
 181 397 l 2
 181 432 178 444 163 462 c 0
 154 471 147 477 143 477 c 0
 140 477 136 475 130 472 c 2
 27 418 l 1
 33 404 l 1
 46 412 53 414 64 414 c 0
 94 414 102 340.395199882 102 333 c 2
 102 93 l 1
EndSplineSet
EndChar

StartChar: vy
Encoding: 39 60819 51
Width: 443
GlyphClass: 2
Flags: W
HStem: 0 15<111 160.231 304.127 348> 447 25<106.965 306>
VStem: 54 19<349 397.873> 190 84<25.9339 286.882>
AnchorPoint: "Top" 234 657 basechar 0
AnchorPoint: "Bottom" 203 0 basechar 0
LayerCount: 2
Fore
SplineSet
111 15 m 1
 189 16 190 41 190 102 c 2
 190 182 l 2
 190 274 243 391 306 447 c 1
 161 447 l 2
 96 447 82 423 73 349 c 1
 54 349 l 1
 57 472 l 1
 422 472 l 1
 422 457 l 1
 367 382 275 312 274 202 c 2
 274 102 l 2
 274 22 284 23 348 15 c 1
 348 0 l 1
 111 0 l 1
 111 15 l 1
EndSplineSet
EndChar

StartChar: ry
Encoding: 40 60820 52
Width: 472
VWidth: 0
GlyphClass: 2
Flags: W
HStem: -10 64<124.524 243.149> 449 34<155.835 270.584> 452 20G<44.2357 85.5152>
VStem: 39 24<315 356.154> 45 29<441.589 472> 348 99<156.436 347.776>
AnchorPoint: "Top" 233 657 basechar 0
AnchorPoint: "Bottom" 233 0 basechar 0
LayerCount: 2
Fore
SplineSet
39 315 m 1xd4
 45 472 l 1
 74 472 l 1xac
 74 472 84 439 93 439 c 0
 108 439 164 483 236 483 c 3
 360 483 447 372 447 235 c 3
 447 98 360 -10 217 -10 c 0
 105 -10 67 51 24 144 c 1
 46 151 l 1
 59 95 114 52 173 54 c 0
 265 57 348 144 348 235 c 3
 348 292 346 341 321 382 c 0
 295 425 253 449 219 449 c 3
 127 449 67 374 63 311 c 0
 39 315 l 1xd4
EndSplineSet
EndChar

StartChar: zy
Encoding: 41 60821 53
Width: 540
GlyphClass: 2
Flags: W
HStem: -217 17<19 60.0356 200.197 261> -10 39<216.097 340.242> 446 37<221.662 334.777>
VStem: 90 84<-187.697 35 62.6267 377.812> 407 94<128.844 356.061>
AnchorPoint: "Top" 285 658 basechar 0
AnchorPoint: "Bottom" 384 0 basechar 0
LayerCount: 2
Fore
SplineSet
90 -131 m 2
 90 222 l 2
 90 319 101 371 130 410 c 0
 165 456 224 483 290 483 c 0
 417 483 501 386 501 240 c 0
 501 98 408 -10 286 -10 c 0
 241 -10 210 2 173 35 c 1
 173 -124 l 2
 173 -188 186 -198 261 -199 c 1
 261 -217 l 1
 19 -217 l 1
 19 -200 l 1
 78 -194 90 -180 90 -131 c 2
171 354 m 1026
174 82 m 1
 214 43 244 29 282 29 c 0
 359 29 407 106 407 228 c 0
 407 363 357 446 277 446 c 0
 242 446 211 428 194 397 c 0
 179 373 174 344 174 297 c 2
 174 82 l 1
EndSplineSet
EndChar

StartChar: jy
Encoding: 42 60822 54
Width: 566
GlyphClass: 2
Flags: W
HStem: -217 17<19 60.0356 195.887 261> -10 61<201.554 311.531> 38 15<506.854 533> 455 18<25 71.7869 302 355.684>
VStem: 90 83<-187.246 -130 78.7203 131 391 448.394> 380 83<60.2361 80 85.8838 142 389 445.17>
AnchorPoint: "Top" 274 658 basechar 0
AnchorPoint: "Bottom" 348 0 basechar 0
LayerCount: 2
Fore
SplineSet
174 -130 m 2xdc
 174 36 l 1
 176 18 207 -10 239 -10 c 3xdc
 283 -10 312 7 340 35 c 2
 385 80 l 1
 385 -7 l 1
 390 -9 l 1
 442 12 480 24 533 38 c 1
 533 53 l 1
 528 53 l 2xbc
 477 55 464 63 463 113 c 2
 463 473 l 1
 302 473 l 1
 302 455 l 1
 368 452 380 441 380 389 c 2
 380 142 l 2
 380 113 375 98 360 87 c 0
 332 63 299 51 263 51 c 0
 212 51 173 87 173 131 c 2
 173 473 l 1
 25 473 l 1
 25 458 l 1
 74 456 90 441 90 391 c 2
 90 169 l 2
 90 -131 l 2
 90 -180 78 -194 19 -200 c 1
 19 -217 l 1
 261 -217 l 1
 261 -199 l 1
 186 -198 174 -194 174 -130 c 2xdc
EndSplineSet
EndChar

StartChar: ny
Encoding: 43 60823 55
Width: 466
GlyphClass: 2
Flags: W
HStem: -10 24<180.315 278.584> 447 25<135.529 305>
VStem: 54 19<349 380.125> 61 81<40.2629 165.463> 399 14<-3.95898 2.63802 149.295 163>
AnchorPoint: "Top" 228 657 basechar 0
AnchorPoint: "Bottom" 200 0 basechar 0
LayerCount: 2
Back
SplineSet
423 0 m 5
 27 0 l 5
 27 16 l 5
 306 447 l 5
 161 447 l 6
 96 447 82 423 73 349 c 5
 54 349 l 5
 57 472 l 5
 422 472 l 5
 422 457 l 5
 139 25 l 5
 284 25 l 6
 385 25 400 47 419 146 c 5
 438 142 l 5
 423 0 l 5
264 433 m 2
 332 433 364 404 375 333 c 1
 392 333 l 1
 376 472 l 1
 214 472 l 1
 214 472 l 1025
446 155 m 1
 415 93 395 63 367 39 c 0
 329 7 287 -10 239 -10 c 0
 123 -10 40 88 40 223 c 0
 40 307 69 378 122 425 c 0
 165 462 218 483 270 483 c 0
 358 483 432 434 432 375 c 0
 432 351 410 331 382 331 c 0
 359 331 342 351 333 382 c 2
 327 406 l 2
 316 445 302 457 263 457 c 0
 178 457 118 380 118 271 c 0
 118 150 187 62 284 62 c 0
 344 62 384 89 435 162 c 1
 446 155 l 1
422 457 m 1
 422 472 l 1
 57 472 l 1
 54 349 l 1
 73 349 l 1
 82 423 161 447 161 447 c 2
 341 447 l 1
 261 344 70 265 70 130 c 3
 70 49 155.000044772 -9.91275790965 240 -10 c 0
 343.807207051 -10.1065454413 406.482599338 67.0343696821 446 155 c 1
 435 162 l 1
 401.119838763 109.994015207 354.918898648 62 285 62 c 3
 226.999632335 62 158.102539062 101 158.102539062 152 c 3
 158.102539062 252 340.89947213 339.447168886 422 457 c 1
107 337 m 1xd4
 132 433 164 469 225 469 c 0
 274 469 308 440 308 396 c 0
 308 367 291 335 262 318 c 2xe4
 146 249 l 2
 84 212 60 181 60 127 c 0
 60 52 123 -10 213 -10 c 0
 234 -10 256 -6 285 1 c 0
 310 7 323 9 334 9 c 0
 347 9 352 7 359 -4 c 1
 373 -4 l 1
 373 163 l 1
 356 163 l 1xd8
 331 54 294 14 220 14 c 0
 165 14 131 44 131 91 c 0
 131 124 149 150 187 171 c 2
 249 206 l 2
 340 258 374 300 374 360 c 0xe8
 374 438 313 493 228 493 c 0
 203 493 178 488 153 479 c 0
 142 474 131 472 125 472 c 0
 119 472 114 475 107 484 c 1
 96 484 l 1
 91 337 l 1
 107 337 l 1xd4
EndSplineSet
Fore
SplineSet
61 115 m 0xd8
 61.32421875 23.5771484375 124 -10 214 -10 c 3
 268.458984375 -10 382.404296875 29.6875 399 -3.958984375 c 1
 399 -3.958984375 413 -4 413 -4 c 1
 413 163 l 1
 396 163 l 1
 373.506835938 63.1708984375 296.0546875 14 229 14 c 3
 152.842773438 14 142 71.4580078125 142 106 c 3xd8
 142 202.442382812 342.1821545 354.986251023 422 457 c 1
 422 472 l 1
 57 472 l 1
 54 349 l 1
 73 349 l 1xe8
 82 423 161 447 161 447 c 2
 305 447 l 1
 151.722890134 290.709043852 60.6171875 222.92578125 61 115 c 0xd8
EndSplineSet
EndChar

StartChar: bahebu
Encoding: 44 60824 56
Width: 0
VWidth: 0
GlyphClass: 4
Flags: W
HStem: -194 124<-309.03 -214.583>
VStem: -323 123<-179.661 -84.3391>
AnchorPoint: "Bottom" -262 0 mark 0
LayerCount: 2
Fore
SplineSet
-323 -132 m 4
 -323 -123 -322 -116 -319 -108 c 4
 -316 -100 -311 -94 -306 -88 c 4
 -301 -82 -294 -78 -286 -75 c 4
 -278 -72 -271 -70 -262 -70 c 260
 -253 -70 -246 -72 -238 -75 c 4
 -230 -78 -224 -82 -218 -88 c 4
 -212 -94 -208 -100 -205 -108 c 4
 -202 -116 -200 -123 -200 -132 c 4
 -200 -141 -202 -149 -205 -156 c 4
 -208 -163 -212 -170 -218 -176 c 4
 -224 -182 -230 -186 -238 -189 c 4
 -246 -192 -253 -194 -262 -194 c 260
 -271 -194 -278 -192 -286 -189 c 4
 -294 -186 -301 -182 -306 -176 c 4
 -311 -170 -316 -163 -319 -156 c 4
 -322 -149 -323 -141 -323 -132 c 4
EndSplineSet
EndChar

StartChar: smajibu
Encoding: 45 60825 57
Width: 416
VWidth: 988
GlyphClass: 2
Flags: W
HStem: 224 74<70 343>
VStem: 70 273<224 298>
LayerCount: 2
Fore
SplineSet
70 298 m 1
 343 298 l 1
 343 224 l 1
 70 224 l 1
 70 298 l 1
EndSplineSet
Substitution2: "Single Substitution lookup 60 subtable" smajibu.fina
Substitution2: "Single Substitution lookup 59 subtable" smajibu.fina
Substitution2: "Single Substitution lookup 58 subtable" smajibu.fina
Substitution2: "Single Substitution lookup 56 subtable" smajibu.medi
Substitution2: "Single Substitution lookup 55 subtable" smajibu.medi
Substitution2: "Single Substitution lookup 54 subtable" smajibu.medi
Substitution2: "Single Substitution lookup 53 subtable" smajibu.medi
Substitution2: "Single Substitution lookup 52 subtable" smajibu.medi
Substitution2: "Single Substitution lookup 51 subtable" smajibu.medi
Substitution2: "Single Substitution lookup 49 subtable" smajibu.init
Substitution2: "Single Substitution lookup 48 subtable" smajibu.init
Substitution2: "Single Substitution lookup 47 subtable" smajibu.init
EndChar

StartChar: tcenabu
Encoding: 47 60827 59
Width: 0
VWidth: 988
GlyphClass: 4
Flags: W
HStem: -169 74<-528 2>
AnchorPoint: "Bottom" -263 0 mark 0
LayerCount: 2
Fore
SplineSet
-528 -95 m 1
 2 -95 l 1
 2 -169 l 1
 -528 -169 l 1
 -528 -95 l 1
EndSplineSet
EndChar

StartChar: abu
Encoding: 52 60832 64
Width: 0
VWidth: 0
GlyphClass: 4
Flags: W
HStem: 591 159
VStem: -32 136
AnchorPoint: "Top" 0 657 mark 0
LayerCount: 2
Fore
SplineSet
-32 591 m 5
 16 750 l 5
 104 750 l 5
 -17 591 l 5
 -32 591 l 5
EndSplineSet
MultipleSubs2: "Multiple Substitution lookup 62 subtable" denpabu abu
EndChar

StartChar: ebu
Encoding: 53 60833 65
Width: 0
VWidth: 988
GlyphClass: 4
Flags: W
HStem: 631 46<-102 102>
VStem: -102 204<631 677>
AnchorPoint: "Top" 0 657 mark 0
LayerCount: 2
Fore
SplineSet
-102 677 m 1
 102 677 l 1
 102 631 l 1
 -102 631 l 1
 -102 677 l 1
EndSplineSet
MultipleSubs2: "Multiple Substitution lookup 63 subtable" denpabu ebu
EndChar

StartChar: ibu
Encoding: 54 60834 66
Width: 0
VWidth: 0
GlyphClass: 4
Flags: W
HStem: 606.215 102.887<-40.4763 43.3617>
VStem: -50 102.886<615.739 699.578>
AnchorPoint: "Top" 0 657 mark 0
LayerCount: 2
Fore
SplineSet
-50 657.658203125 m 0
 -50 685.951171875 -26.8505859375 709.1015625 1.4423828125 709.1015625 c 0
 29.7353515625 709.1015625 52.8857421875 685.951171875 52.8857421875 657.658203125 c 0
 52.8857421875 629.365234375 29.7353515625 606.21484375 1.4423828125 606.21484375 c 0
 -26.8505859375 606.21484375 -50 629.365234375 -50 657.658203125 c 0
EndSplineSet
MultipleSubs2: "Multiple Substitution lookup 64 subtable" denpabu ibu
Substitution2: "Single Substitution lookup 33 subtable" iy
Substitution2: "Single Substitution lookup 32 subtable" iy
Substitution2: "Single Substitution lookup 31 subtable" iy
Substitution2: "Single Substitution lookup 30 subtable" iy
Substitution2: "Single Substitution lookup 29 subtable" iy
Substitution2: "Single Substitution lookup 28 subtable" iy
Substitution2: "Single Substitution lookup 27 subtable" iy
Substitution2: "Single Substitution lookup 26 subtable" iy
Substitution2: "Single Substitution lookup 25 subtable" iy
Substitution2: "Single Substitution lookup 24 subtable" iy
Substitution2: "Single Substitution lookup 13 subtable" iy
Substitution2: "Single Substitution lookup 12 subtable" iy
Substitution2: "Single Substitution lookup 11 subtable" iy
Substitution2: "Single Substitution lookup 10 subtable" iy
Substitution2: "Single Substitution lookup 9 subtable" iy
Substitution2: "Single Substitution lookup 8 subtable" iy
Substitution2: "Single Substitution lookup 7 subtable" iy
Substitution2: "Single Substitution lookup 6 subtable" iy
Substitution2: "Single Substitution lookup 5 subtable" iy
Substitution2: "Single Substitution lookup 4 subtable" iy
EndChar

StartChar: obu
Encoding: 55 60835 67
Width: 0
VWidth: 0
GlyphClass: 4
Flags: W
HStem: 597 50<19.1057 80.2188> 642 52<-86.0435 -17.9726>
VStem: -110 9<596 615.398> 97 8<674.047 695>
AnchorPoint: "Top" 0 657 mark 0
LayerCount: 2
Fore
SplineSet
-110 596 m 5x70
 -110 658 -81.0107421875 694 -34 694 c 7x70
 -10.978515625 694 42.9931640625 647 63 647 c 4
 86 647 94 665 97 695 c 5
 105 695 l 7
 105 636.6875 76 597 32 597 c 7xb0
 12.4736328125 597 -43.6064453125 642 -66 642 c 4
 -90 642 -96 628 -101 596 c 5
 -110 596 l 5x70
EndSplineSet
MultipleSubs2: "Multiple Substitution lookup 65 subtable" denpabu obu
EndChar

StartChar: ubu
Encoding: 56 60836 68
Width: 0
VWidth: 0
GlyphClass: 4
Flags: HW
HStem: 612 50<-67.6863 69.5965>
VStem: -108 220
AnchorPoint: "Top" 0 657 mark 0
LayerCount: 2
Fore
SplineSet
112 718 m 0
 99 717 l 0
 82 678 51.009765625 662 0 662 c 3
 -45.0107421875 662 -80 678 -96 717 c 1
 -108 718 l 0
 -108 657 -62 602 0 602 c 3
 63 602 112 656 112 718 c 0
EndSplineSet
MultipleSubs2: "Multiple Substitution lookup 66 subtable" denpabu ubu
Substitution2: "Single Substitution lookup 43 subtable" uy
Substitution2: "Single Substitution lookup 42 subtable" uy
Substitution2: "Single Substitution lookup 41 subtable" uy
Substitution2: "Single Substitution lookup 40 subtable" uy
Substitution2: "Single Substitution lookup 39 subtable" uy
Substitution2: "Single Substitution lookup 38 subtable" uy
Substitution2: "Single Substitution lookup 37 subtable" uy
Substitution2: "Single Substitution lookup 36 subtable" uy
Substitution2: "Single Substitution lookup 35 subtable" uy
Substitution2: "Single Substitution lookup 34 subtable" uy
Substitution2: "Single Substitution lookup 23 subtable" uy
Substitution2: "Single Substitution lookup 22 subtable" uy
Substitution2: "Single Substitution lookup 21 subtable" uy
Substitution2: "Single Substitution lookup 20 subtable" uy
Substitution2: "Single Substitution lookup 19 subtable" uy
Substitution2: "Single Substitution lookup 18 subtable" uy
Substitution2: "Single Substitution lookup 17 subtable" uy
Substitution2: "Single Substitution lookup 16 subtable" uy
Substitution2: "Single Substitution lookup 15 subtable" uy
Substitution2: "Single Substitution lookup 14 subtable" uy
EndChar

StartChar: ybu
Encoding: 57 60837 69
Width: 0
VWidth: 0
GlyphClass: 4
Flags: W
HStem: 567.244 32.3555<-39.6964 38.6173> 713 31.4551<-38.3229 37.3642>
VStem: -88.0205 32.2197<615.877 695.14> 55.7998 30.4199<618.574 694.102>
AnchorPoint: "Top" 0 657 mark 0
LayerCount: 2
Fore
SplineSet
-0.900390625 567.244140625 m 0
 -50.412109375 567.244140625 -88.0205078125 607.2578125 -88.0205078125 657.334960938 c 0
 -88.0205078125 704.442382812 -48.005859375 744.455078125 -0.900390625 744.455078125 c 0
 46.728515625 744.455078125 86.2197265625 703.245117188 86.2197265625 655.354492188 c 0
 86.2197265625 606.581054688 47.2607421875 567.244140625 -0.900390625 567.244140625 c 0
0 713 m 0
 -31.5 713 -55.80078125 687.814766573 -55.80078125 657.19921875 c 3
 -55.80078125 622.983316674 -31.5 599.599609375 0 599.599609375 c 256
 31.5 599.599609375 55.7998046875 624.788296334 55.7998046875 656.299804688 c 259
 55.7998046875 686.010846138 31.5 713 0 713 c 0
EndSplineSet
MultipleSubs2: "Multiple Substitution lookup 67 subtable" denpabu ybu
EndChar

StartChar: aibu
Encoding: 58 60838 70
Width: 0
VWidth: 0
GlyphClass: 4
Flags: W
HStem: 561 9<-40 -20.6024> 768 8<38.047 59>
VStem: -39 50<685.646 757.191> 6 52<579.255 658.011>
AnchorPoint: "Top" 0 657 mark 0
LayerCount: 2
Fore
SplineSet
-40 561 m 1xd0
 22 561 58 579.989257812 58 627 c 3xd0
 58 650.021484375 11 713.993164062 11 734 c 0
 11 757 29 765 59 768 c 1
 59 776 l 3
 0.6875 776 -39 757 -39 713 c 3xe0
 -39 693.473632812 6 627.393554688 6 605 c 0
 6 581 -8 575 -40 570 c 1
 -40 561 l 1xd0
-1 652 m 1024
EndSplineSet
MultipleSubs2: "Multiple Substitution lookup 68 subtable" denpabu aibu
Ligature2: "zlmVV subtable" abu ibu
LCarets2: 1 0
EndChar

StartChar: eibu
Encoding: 59 60839 71
Width: 0
VWidth: 0
GlyphClass: 4
Flags: HW
HStem: 643 50<-69.5965 67.6863>
VStem: -112 220
AnchorPoint: "Top" 0 657 mark 0
LayerCount: 2
Fore
SplineSet
-112 587 m 0
 -99 588 l 0
 -82 627 -51.009765625 643 0 643 c 3
 45.0107421875 643 80 627 96 588 c 1
 108 587 l 0
 108 648 62 703 0 703 c 3
 -63 703 -112 649 -112 587 c 0
EndSplineSet
MultipleSubs2: "Multiple Substitution lookup 69 subtable" denpabu eibu
Ligature2: "zlmVV subtable" ebu ibu
LCarets2: 1 0
EndChar

StartChar: oibu
Encoding: 60 60840 72
Width: 0
VWidth: 0
GlyphClass: 4
Flags: W
HStem: 597 50<19.2368 77.238> 644 56<-64.3884 -17.6168>
VStem: 94 8<662.169 695>
AnchorPoint: "Top" 0 657 mark 0
LayerCount: 2
Fore
SplineSet
-82 665 m 2x60
 -82.0009765625 664.999023438 -40.025390625 700 -20 700 c 3x60
 3.021484375 700 49.9931640625 647 70 647 c 0
 93 647 91 665 94 695 c 1
 102 695 l 1
 102 636.6875 73 597 29 597 c 0xa0
 9.4736328125 597 -37.6064452877 643.997266523 -60 644 c 0
 -84.0009765625 644.002929688 -86.435546875 641.959960938 -96 632 c 1
 -110 640 l 1
 0 808 l 1
 81 808 l 1
 -82 665 l 2x60
EndSplineSet
MultipleSubs2: "Multiple Substitution lookup 70 subtable" denpabu oibu
Ligature2: "zlmVV subtable" obu ibu
LCarets2: 1 0
EndChar

StartChar: aubu
Encoding: 61 60841 73
Width: 0
VWidth: 0
GlyphClass: 4
Flags: W
HStem: 533.559 222
VStem: 29.9297 40<611.182 669.755>
AnchorPoint: "Top" 0 658 mark 0
LayerCount: 2
Fore
SplineSet
-56 708 m 3
 -56 727.55859375 -46.0703125 755.55859375 0.9296875 755.55859375 c 3
 36.9296875 755.55859375 69.9296875 721.12109375 69.9296875 668.55859375 c 3
 69.9296875 609.557617188 1.599609375 546.95703125 -38.400390625 533.55859375 c 1
 -36.400390625 556.55859375 l 1
 -36.400390625 556.55859375 20.7607421875 591.009765625 29.9296875 638.55859375 c 0
 32.353515625 651.130859375 32.9296875 685.791992188 11.9296875 671.55859375 c 0
 -8.0703125 658.002929688 -56 659.55859375 -56 708 c 3
EndSplineSet
MultipleSubs2: "Multiple Substitution lookup 71 subtable" denpabu aubu
Ligature2: "zlmVV subtable" abu ubu
LCarets2: 1 0
EndChar

StartChar: iy
Encoding: 62 60842 74
Width: 553
GlyphClass: 2
Flags: HW
HStem: 0 16<22 49.8715 140.239 175 319 357.591 496.519 530>
AnchorPoint: "Top" 267 658 basechar 0
AnchorPoint: "Bottom" 258 0 basechar 0
LayerCount: 2
Fore
SplineSet
22 16 m 1
 55 19 62 26 94 97 c 2
 235 435 l 2
 251 473 259 487 266 487 c 0
 275 487 284 464 296 438 c 2
 430 136 l 2
 478 27 488 18 530 16 c 1
 530 0 l 1
 319 0 l 1
 319 16 l 1
 358 19 370 26 370 45 c 0
 370 54 366 69 360 84 c 2
 244 361 l 1
 130 81 l 2
 126 70 123 60 123 49 c 0
 123 29 140 19 175 16 c 1
 175 0 l 1
 22 0 l 1
 22 16 l 1
EndSplineSet
EndChar

StartChar: uy
Encoding: 63 60843 75
Width: 553
GlyphClass: 2
Flags: HW
HStem: 457 16<22 55.4808 194.409 233 377 411.761 502.129 530>
AnchorPoint: "Bottom" 290 0 basechar 0
AnchorPoint: "Top" 290 658 basechar 0
LayerCount: 2
Fore
SplineSet
530 457 m 1
 497 454 490 447 458 376 c 2
 317 38 l 2
 301 0 293 -14 286 -14 c 0
 277 -14 268 9 256 35 c 2
 122 337 l 2
 74 446 64 455 22 457 c 1
 22 473 l 1
 233 473 l 1
 233 457 l 1
 194 454 182 447 182 428 c 0
 182 419 186 404 192 389 c 2
 308 112 l 1
 422 392 l 2
 426 403 429 413 429 424 c 0
 429 444 412 454 377 457 c 1
 377 473 l 1
 530 473 l 1
 530 457 l 1
EndSplineSet
EndChar

StartChar: uniEDAC
Encoding: 272 60844 76
Width: 446
VWidth: 988
GlyphClass: 2
Flags: W
HStem: 0 69<132 406> 730 20G<188.958 277>
VStem: 188 89<212.256 750>
AnchorPoint: "Top" 230 659 basechar 0
AnchorPoint: "Bottom" 228 0 basechar 0
LayerCount: 2
Fore
SplineSet
132 69 m 0
 406 69 l 1
 406 0 l 1
 29 0 l 1
 29 37 l 2
 29 48 30.0631501485 53.8825866241 32 55 c 0
 136 115 187.874648581 218.83413022 188 278 c 2
 189 750 l 0
 277 750 l 1
 277 324 l 2
 277 256.750789571 242 140 174 83 c 0
 132 69 l 0
EndSplineSet
EndChar

StartChar: seplimeabu
Encoding: 68 60848 80
Width: 410
GlyphClass: 3
Flags: HW
HStem: 0 17<28 82.9931 200.663 254> 433 39<181 335.658> 455 17<28 82.9931>
VStem: 102 79<24.5554 432.671> 375 17<333 365.953>
LayerCount: 2
Fore
SplineSet
181 120 m 2xd8
 181 33 189 18 238 17 c 2
 254 17 l 1
 254 0 l 1
 28 0 l 1
 28 17 l 1
 45 17 l 2
 96 20 101 29 102 120 c 2
 102 352 l 2
 101 444 96 452 45 455 c 2
 28 455 l 1
 28 472 l 1
 376 472 l 1xb8
 392 333 l 1
 375 333 l 1
 364 404 332 433 264 433 c 2
 181 433 l 1
 181 120 l 2xd8
EndSplineSet
Ligature2: "zlmSF subtable" slakabu seplimeabu
LCarets2: 1 0
EndChar

StartChar: seplimeebu
Encoding: 69 60849 81
Width: 410
GlyphClass: 3
Flags: HW
HStem: 0 17<28 82.9931 200.663 254> 225 41<181 342.71> 455 17<28 82.9931 200.663 254>
VStem: 102 79<24.5554 225 266 447.445> 359 23<149 195.188 293.436 341>
LayerCount: 2
Fore
SplineSet
28 472 m 1
 254 472 l 1
 254 455 l 1
 238 455 l 2
 189 454 181 439 181 352 c 2
 181 266 l 1
 249 266 l 2
 333 268 347 260 359 341 c 1
 382 341 l 1
 382 149 l 1
 359 149 l 1
 346 231 333 223 249 225 c 2
 181 225 l 1
 181 120 l 2
 181 33 189 18 238 17 c 2
 254 17 l 1
 254 0 l 1
 28 0 l 1
 28 17 l 1
 45 17 l 2
 96 20 101 29 102 120 c 2
 102 352 l 2
 101 443 96 452 45 455 c 2
 28 455 l 1
 28 472 l 1
EndSplineSet
Ligature2: "zlmSF subtable" slakabu seplimeebu
EndChar

StartChar: seplimeibu
Encoding: 70 60850 82
Width: 535
GlyphClass: 3
Flags: HW
HStem: 0 17<14 68.9931 186.663 240 296 350.993 468.663 522> 433 39<167 370> 455 17<14 68.9931 468.663 522>
VStem: 88 79<24.5907 432.671> 370 79<24.5907 431.719>
LayerCount: 2
Fore
SplineSet
522 472 m 1xb8
 522 455 l 1
 506 455 l 2xb8
 457 454 449 440 449 352 c 2
 449 121 l 2
 449 33 457 18 506 17 c 2
 522 17 l 1
 522 0 l 1
 296 0 l 1
 296 17 l 1
 313 17 l 2
 364 20 369 29 370 121 c 2
 370 433 l 1
 167 433 l 1xd8
 167 121 l 2
 167 33 175 18 224 17 c 2
 240 17 l 1
 240 0 l 1
 14 0 l 1
 14 17 l 1
 31 17 l 2
 82 20 87 29 88 121 c 2
 88 352 l 2
 87 444 82 452 31 455 c 2
 14 455 l 1
 14 472 l 1
 522 472 l 1xb8
EndSplineSet
Ligature2: "zlmSF subtable" slakabu seplimeibu
LCarets2: 1 0
EndChar

StartChar: seplimeobu
Encoding: 71 60851 83
Width: 410
GlyphClass: 3
Flags: HW
HStem: 0 39<84.3418 239> 0 17<337.007 392> 455 17<166 219.337 337.007 392>
VStem: 28 17<106.047 139> 239 79<39.3288 447.445>
LayerCount: 2
Fore
SplineSet
239 352 m 2xb8
 239 439 231 454 182 455 c 2
 166 455 l 1
 166 472 l 1
 392 472 l 1
 392 455 l 1
 375 455 l 2
 324 452 319 443 318 352 c 2
 318 120 l 2
 319 28 324 20 375 17 c 2
 392 17 l 1
 392 0 l 1
 44 0 l 1x78
 28 139 l 1
 45 139 l 1
 56 68 88 39 156 39 c 2
 239 39 l 1
 239 352 l 2xb8
EndSplineSet
Ligature2: "zlmSF subtable" slakabu seplimeobu
EndChar

StartChar: seplimeubu
Encoding: 72 60852 84
Width: 535
GlyphClass: 3
Flags: HW
HStem: 0 39<166 369> 0 17<14 67.3375 467.007 522> 455 17<14 67.3375 185.007 240 296 349.337 467.007 522>
VStem: 87 79<40.2813 447.409> 369 79<39.3288 447.409>
LayerCount: 2
Fore
SplineSet
14 0 m 1x78
 14 17 l 1
 30 17 l 2x78
 79 18 87 32 87 120 c 2
 87 351 l 2
 87 439 79 454 30 455 c 2
 14 455 l 1
 14 472 l 1
 240 472 l 1
 240 455 l 1
 223 455 l 2
 172 452 167 443 166 351 c 2
 166 39 l 1
 369 39 l 1xb8
 369 351 l 2
 369 439 361 454 312 455 c 2
 296 455 l 1
 296 472 l 1
 522 472 l 1
 522 455 l 1
 505 455 l 2
 454 452 449 443 448 351 c 2
 448 120 l 2
 449 28 454 20 505 17 c 2
 522 17 l 1
 522 0 l 1
 14 0 l 1x78
EndSplineSet
Ligature2: "zlmSF subtable" slakabu seplimeubu
EndChar

StartChar: seplimeybu
Encoding: 73 60853 85
Width: 394
GlyphClass: 3
Flags: HW
HStem: 0 17<78 132.993 250.663 304> 225 41<47.5576 152 231 342.71> 455 17<78 132.993 250.663 304>
VStem: 11 23<149 200.851 289.801 341> 152 79<24.5554 225 266 447.445> 359 23<149 195.188 293.436 341>
LayerCount: 2
Fore
SplineSet
78 472 m 1
 304 472 l 1
 304 455 l 1
 288 455 l 2
 239 454 231 439 231 352 c 2
 231 266 l 1
 249 266 l 2
 333 268 347 260 359 341 c 1
 382 341 l 1
 382 149 l 1
 359 149 l 1
 346 231 333 223 249 225 c 2
 231 225 l 1
 231 120 l 2
 231 33 239 18 288 17 c 2
 304 17 l 1
 304 0 l 1
 78 0 l 1
 78 17 l 1
 95 17 l 2
 146 20 151 29 152 120 c 2
 152 225 l 1
 134 225 l 2
 50 223 47 231 34 149 c 1
 11 149 l 1
 11 341 l 1
 34 341 l 1
 46 260 50 268 134 266 c 2
 152 266 l 1
 152 352 l 2
 151 443 146 452 95 455 c 2
 78 455 l 1
 78 472 l 1
EndSplineSet
Ligature2: "zlmSF subtable" slakabu seplimeybu
EndChar

StartChar: seplimeaibu
Encoding: 74 60854 86
Width: 410
GlyphClass: 3
Flags: HW
HStem: -0 39<264 335.658> -0 17<45 82.9931> 433 39<264 335.658> 455 17<45 83.5993>
VStem: 102 79<39.7354 120 372.262 432.402> 375 17<105.916 138.91 333 365.953>
LayerCount: 2
Fore
SplineSet
181 120 m 1x8c
 181 352 l 1
 181 433 l 1
 264 433 l 6xac
 332 433 364 404 375 333 c 5
 392 333 l 5
 376 472 l 5
 214 472 l 5
 214 472 l 5
 28 472 l 1
 28 472 l 1
 28 455 l 1
 28 455 l 1
 45 455 l 2
 66 454 79 452 87 444 c 0
 98 434 101 413 102 372 c 0
 102 366 102 359 102 352 c 2
 102 120 l 2
 101 29 96 20 45 17 c 2
 28 17 l 1
 28 17 l 1
 28 -0 l 1
 28 -0 l 1
 376 -0 l 1x5c
 392 139 l 1
 375 139 l 1
 364 68 332 39 264 39 c 2
 181 39 l 1
 181 120 l 1x8c
EndSplineSet
Ligature2: "zlmSFF subtable" slakabu seplimeaibu
Ligature2: "zlmFF subtable" seplimeabu seplimeibu
LCarets2: 1 0
EndChar

StartChar: seplimeeibu
Encoding: 75 60855 87
Width: 428
GlyphClass: 3
Flags: HW
HStem: -10 24<157.1 265.58> 469 24<161.084 258.549>
VStem: 60 66<339.933 433.063> 61 17<134.139 163> 303 71<55.9611 144.546> 327 16<337 362.438>
LayerCount: 2
Fore
SplineSet
327 337 m 1xe4
 302 433 270 469 209 469 c 0
 160 469 126 440 126 396 c 0xe4
 126 367 143 335 172 318 c 2
 288 249 l 2
 350 212 374 181 374 127 c 0
 374 52 311 -10 221 -10 c 0
 200 -10 178 -6 149 1 c 0
 124 7 111 9 100 9 c 0
 87 9 82 7 75 -4 c 1
 61 -4 l 1
 61 163 l 1
 78 163 l 1
 103 54 140 14 214 14 c 0
 269 14 303 44 303 91 c 0xd8
 303 124 285 150 247 171 c 2
 185 206 l 2
 94 258 60 300 60 360 c 0
 60 438 121 493 206 493 c 0
 231 493 256 488 281 479 c 0
 292 474 303 472 309 472 c 0
 315 472 320 475 327 484 c 1
 338 484 l 1
 343 337 l 1
 327 337 l 1xe4
EndSplineSet
Ligature2: "zlmSFF subtable" slakabu seplimeeibu
Ligature2: "zlmFF subtable" seplimeebu seplimeibu
EndChar

StartChar: seplimeoibu
Encoding: 76 60856 88
Width: 410
GlyphClass: 3
Flags: HW
HStem: -0 39<84.3418 239> -0 17<337.007 392> 433 39<84.3418 239> 455 17<336.401 392>
VStem: 28 17<105.916 138.91 333 365.953> 239 79<39.7354 432.402>
LayerCount: 2
Fore
SplineSet
239 120 m 1x8c
 239 352 l 1
 239 433 l 1
 156 433 l 2
 88 433 56 404 45 333 c 1
 28 333 l 1
 44 472 l 1
 206 472 l 1
 206 472 l 1xac
 392 472 l 1
 392 472 l 1
 392 455 l 1
 392 455 l 1
 375 455 l 2
 354 454 341 452 333 444 c 0
 322 434 319 413 318 372 c 0
 318 366 318 359 318 352 c 2
 318 120 l 2
 319 29 324 20 375 17 c 2
 392 17 l 1
 392 17 l 1
 392 -0 l 1
 392 -0 l 1
 44 -0 l 1x5c
 28 139 l 1
 45 139 l 1
 56 68 88 39 156 39 c 2
 239 39 l 1
 239 120 l 1x8c
EndSplineSet
Ligature2: "zlmSFF subtable" slakabu seplimeoibu
Ligature2: "zlmFF subtable" seplimeobu seplimeibu
EndChar

StartChar: seplimeaubu
Encoding: 77 60857 89
Width: 522
GlyphClass: 3
Flags: HW
HStem: 0 16<17 50.4295 131.088 169 291 327.686 469.428 502> 457 15<24 64.5508 205.566 242 288 321.235 418.877 454>
LayerCount: 2
Fore
SplineSet
291 16 m 1
 326 18 333 22 333 41 c 0
 333 48 331 54 327 60 c 2
 231 207 l 1
 148 78 l 2
 134 56 127 42 127 35 c 0
 127 21 139 16 169 16 c 1
 169 0 l 1
 17 0 l 1
 17 16 l 1
 52 19 62 26 94 69 c 2
 213 243 l 1
 115 394 l 2
 82 443 65 457 34 457 c 2
 24 457 l 1
 24 472 l 1
 242 472 l 1
 242 457 l 1
 210 456 197 449 197 434 c 0
 197 423 204 406 224 374 c 0
 226 370 235 356 251 332 c 2
 260 319 l 1
 273 340 286 359 291 365 c 0
 317 398 330 421 330 434 c 0
 330 448 319 455 288 457 c 1
 288 472 l 1
 454 472 l 1
 454 457 l 1
 420 456 389 439 369 411 c 2
 282 285 l 1
 416 79 l 2
 449 33 470 16 502 16 c 1
 502 0 l 1
 291 0 l 1
 291 16 l 1
EndSplineSet
Ligature2: "zlmSFF subtable" slakabu seplimeaubu
Ligature2: "zlmFF subtable" seplimeabu seplimeubu
EndChar

StartChar: uniEDBC
Encoding: 278 60860 92
Width: 446
VWidth: 988
GlyphClass: 2
Flags: W
HStem: -250 21G<158 246> 431 69<29 302>
VStem: 158 88<-250 260.403>
AnchorPoint: "Top" 208 658 basechar 0
AnchorPoint: "Bottom" 203 0 basechar 0
LayerCount: 2
Fore
SplineSet
302 431 m 0
 29 431 l 1
 29 500 l 1
 406 500 l 1
 406 464 l 2
 406 453 404.936849852 446.117413376 403 445 c 0
 299 385 246 222 246 222 c 2
 246 -250 l 0
 158 -250 l 1
 158 176 l 2
 158 176 192 360 260 417 c 0
 302 431 l 0
EndSplineSet
EndChar

StartChar: bahebu_bahebu
Encoding: 78 -1 96
Width: 0
VWidth: 0
GlyphClass: 4
Flags: W
HStem: -194 124<-403.03 -308.583 -226.03 -131.583>
VStem: -417 123<-179.661 -84.3391> -240 123<-179.661 -84.3391>
AnchorPoint: "Bottom" -267 0 mark 0
LayerCount: 2
Fore
SplineSet
-417 -132 m 4
 -417 -123 -416 -116 -413 -108 c 4
 -410 -100 -405 -94 -400 -88 c 4
 -395 -82 -388 -78 -380 -75 c 4
 -372 -72 -365 -70 -356 -70 c 260
 -347 -70 -340 -72 -332 -75 c 4
 -324 -78 -318 -82 -312 -88 c 4
 -306 -94 -302 -100 -299 -108 c 4
 -296 -116 -294 -123 -294 -132 c 4
 -294 -141 -296 -149 -299 -156 c 4
 -302 -163 -306 -170 -312 -176 c 4
 -318 -182 -324 -186 -332 -189 c 4
 -340 -192 -347 -194 -356 -194 c 260
 -365 -194 -372 -192 -380 -189 c 4
 -388 -186 -395 -182 -400 -176 c 4
 -405 -170 -410 -163 -413 -156 c 4
 -416 -149 -417 -141 -417 -132 c 4
-240 -132 m 4
 -240 -123 -239 -116 -236 -108 c 4
 -233 -100 -228 -94 -223 -88 c 4
 -218 -82 -211 -78 -203 -75 c 4
 -195 -72 -188 -70 -179 -70 c 260
 -170 -70 -163 -72 -155 -75 c 4
 -147 -78 -141 -82 -135 -88 c 4
 -129 -94 -125 -100 -122 -108 c 4
 -119 -116 -117 -123 -117 -132 c 4
 -117 -141 -119 -149 -122 -156 c 4
 -125 -163 -129 -170 -135 -176 c 4
 -141 -182 -147 -186 -155 -189 c 4
 -163 -192 -170 -194 -179 -194 c 260
 -188 -194 -195 -192 -203 -189 c 4
 -211 -186 -218 -182 -223 -176 c 4
 -228 -170 -233 -163 -236 -156 c 4
 -239 -149 -240 -141 -240 -132 c 4
EndSplineSet
Ligature2: "zlmBahebu subtable" bahebu bahebu
LCarets2: 1 0
EndChar

StartChar: bahebu_bahebu_bahebu
Encoding: 79 -1 97
Width: 0
VWidth: 0
GlyphClass: 4
Flags: W
HStem: -313 124<-315.03 -220.583> -189 124<-404.03 -309.583 -227.03 -132.583>
VStem: -418 123<-174.661 -79.3391> -329 123<-298.661 -203.339> -241 123<-174.661 -79.3391>
AnchorPoint: "Bottom" -268 0 mark 0
LayerCount: 2
Fore
SplineSet
-329 -251 m 0x90
 -329 -242 -328 -235 -325 -227 c 0
 -322 -219 -317 -213 -312 -207 c 0
 -307 -201 -300 -197 -292 -194 c 0
 -284 -191 -277 -189 -268 -189 c 256
 -259 -189 -252 -191 -244 -194 c 0
 -236 -197 -230 -201 -224 -207 c 0
 -218 -213 -214 -219 -211 -227 c 0
 -208 -235 -206 -242 -206 -251 c 0
 -206 -260 -208 -268 -211 -275 c 0
 -214 -282 -218 -289 -224 -295 c 0
 -230 -301 -236 -305 -244 -308 c 0
 -252 -311 -259 -313 -268 -313 c 256
 -277 -313 -284 -311 -292 -308 c 0
 -300 -305 -307 -301 -312 -295 c 0
 -317 -289 -322 -282 -325 -275 c 0
 -328 -268 -329 -260 -329 -251 c 0x90
-418 -127 m 0x60
 -418 -118 -417 -111 -414 -103 c 0
 -411 -95 -406 -89 -401 -83 c 0
 -396 -77 -389 -73 -381 -70 c 0
 -373 -67 -366 -65 -357 -65 c 256
 -348 -65 -341 -67 -333 -70 c 0
 -325 -73 -319 -77 -313 -83 c 0
 -307 -89 -303 -95 -300 -103 c 0
 -297 -111 -295 -118 -295 -127 c 0
 -295 -136 -297 -144 -300 -151 c 0
 -303 -158 -307 -165 -313 -171 c 0
 -319 -177 -325 -181 -333 -184 c 0
 -341 -187 -348 -189 -357 -189 c 256
 -366 -189 -373 -187 -381 -184 c 0
 -389 -181 -396 -177 -401 -171 c 0
 -406 -165 -411 -158 -414 -151 c 0
 -417 -144 -418 -136 -418 -127 c 0x60
-241 -127 m 0x48
 -241 -118 -240 -111 -237 -103 c 0
 -234 -95 -229 -89 -224 -83 c 0
 -219 -77 -212 -73 -204 -70 c 0
 -196 -67 -189 -65 -180 -65 c 256
 -171 -65 -164 -67 -156 -70 c 0
 -148 -73 -142 -77 -136 -83 c 0
 -130 -89 -126 -95 -123 -103 c 0
 -120 -111 -118 -118 -118 -127 c 0
 -118 -136 -120 -144 -123 -151 c 0
 -126 -158 -130 -165 -136 -171 c 0
 -142 -177 -148 -181 -156 -184 c 0
 -164 -187 -171 -189 -180 -189 c 256
 -189 -189 -196 -187 -204 -184 c 0
 -212 -181 -219 -177 -224 -171 c 0
 -229 -165 -234 -158 -237 -151 c 0
 -240 -144 -241 -136 -241 -127 c 0x48
EndSplineSet
Ligature2: "zlmBahebu subtable" bahebu bahebu bahebu
LCarets2: 2 0 0
EndChar

StartChar: smajibu.init
Encoding: 48 -1 98
Width: 416
VWidth: 988
GlyphClass: 2
Flags: W
HStem: 224 74<70 427>
LayerCount: 2
Fore
SplineSet
70 298 m 1
 427 298 l 1
 427 224 l 1
 70 224 l 1
 70 298 l 1
EndSplineSet
EndChar

StartChar: smajibu.medi
Encoding: 49 -1 99
Width: 416
VWidth: 988
GlyphClass: 2
Flags: W
HStem: 224 74<-10 427>
LayerCount: 2
Fore
SplineSet
-10 298 m 1
 427 298 l 1
 427 224 l 1
 -10 224 l 1
 -10 298 l 1
EndSplineSet
EndChar

StartChar: smajibu.fina
Encoding: 50 -1 100
Width: 416
VWidth: 988
GlyphClass: 2
Flags: W
HStem: 224 74<-10 343>
LayerCount: 2
Fore
SplineSet
-10 298 m 1
 343 298 l 1
 343 224 l 1
 -10 224 l 1
 -10 298 l 1
EndSplineSet
EndChar

StartChar: denpabu.cas
Encoding: 51 -1 101
Width: 147
VWidth: 0
Flags: W
HStem: 246 145<42.5679 106.705> 452 20G<255.952 255.952>
VStem: 24 231.952
AnchorPoint: "Top" 70 658 basechar 0
AnchorPoint: "Bottom" 71 0 basechar 0
LayerCount: 2
Fore
SplineSet
82 391 m 3
 136 391 140.072265625 324.458984375 110 302 c 1
 211 321.836914062 255.952148438 472 255.952148438 472 c 1
 255.952148438 414 l 1
 255.952148438 414 181.952148438 246 98.9521484375 246 c 3
 55.9521484375 246 24 273 24 312.744140625 c 3
 24 370 57 391 82 391 c 3
EndSplineSet
EndChar

StartChar: NameMe.84
Encoding: 84 12398 106
Width: 450
VWidth: 0
Flags: W
HStem: 0 22<24 59.7452> 451 19<294 317.027> 668 23<24 48.7059>
VStem: 74 100<60.3293 669.594>
AnchorPoint: "Top" 376 656 basechar 0
AnchorPoint: "Bottom" 226 0 basechar 0
LayerCount: 2
Fore
SplineSet
24 691 m 1
 144 725 l 0
 175 725 l 1
 174 60 l 0
 243 66 275 139 300 220 c 0
 322 292 326 382 324 418 c 1
 326 437 316 449 294 451 c 1
 294 470 l 1
 425 470 l 1
 425 470 407 320 387 252 c 0
 353 137 279 0 122 0 c 0
 122 0 58 0 24 0 c 1
 24 22 l 0
 48 23 74 28 74 74 c 0
 74 634 l 0
 77 669 67 673 24 668 c 0
 24 691 l 1
EndSplineSet
EndChar

StartChar: NameMe.85
Encoding: 85 12435 107
Width: 550
VWidth: 0
Flags: W
HStem: 0 20<25 58.8734 192.375 233 330 362.559 488.75 525> 400 80<290.597 397.5>
VStem: 75 100<27.7041 326.97 338 671.357> 374 101<26.1875 371.144>
AnchorPoint: "Top" 344 658 basechar 0
AnchorPoint: "Bottom" 277 0 basechar 0
LayerCount: 2
Fore
SplineSet
175 0 m 1
 25 0 l 1
 25 20 l 0
 51 21 75 34 75 59 c 0
 75 634 l 1
 75 654 68 680 35 669 c 9
 28 688 l 1
 142 725 l 0
 175 725 l 1
 175 338 l 1
 249 438 304 480 359 480 c 0
 436 480 473 423 474 267 c 2
 475 55 l 0
 475 32 495 22 525 21 c 0
 525 0 l 1
 330 0 l 1
 330 20 l 0
 360 21 374 34 374 59 c 0
 374 268 l 1
 374 321 362 400 310 400 c 0
 257 400 212 342 175 304 c 0
 175 58 l 0
 175 34 202 20 233 20 c 0
 233 0 l 0
 175 0 l 1
EndSplineSet
EndChar

StartChar: NameMe.86
Encoding: 86 -1 109
Width: 500
VWidth: 0
Flags: W
HStem: -13 21G<327 470.952> 0 20<27 64.294> 8 18<444.236 477> 452 18<275 307.948> 690 22<28 64.7826>
VStem: 77 100<56 692.961> 328 100<31.279 164 176.661 443.961>
AnchorPoint: "Top" 336 657 basechar 0
AnchorPoint: "Bottom" 268 0 basechar 0
LayerCount: 2
Fore
SplineSet
328 212 m 1049x1e
327 -13 m 1x9e
 327 39 327 116 327 164 c 1
 297 82 197 10 177 0 c 1
 27 0 l 1
 27 20 l 1x5e
 48 20 77 29 77 52 c 0
 77 185 77 659 77 659 c 2
 77 701 54 694 28 690 c 1
 24 712 l 1
 158 735 l 1
 177 735 l 1
 177 56 l 1
 238 58 321 200 328 211 c 1
 328 301 328 410 328 410 c 0
 328 438 300 452 275 452 c 3
 275 452 275 464 275 470 c 1
 428 470 l 2
 428 411 l 2
 428 71 l 2
 428 43 444 26 477 26 c 1
 477 8 l 1x3e
 350 -13 l 0
 327 -13 l 1x9e
EndSplineSet
EndChar

StartChar: NameMe.87
Encoding: 87 -1 110
Width: 440
VWidth: 0
Flags: W
HStem: 0 80<113 385> 450 20<138 175.574>
VStem: 185 100<224.197 447.479>
AnchorPoint: "Top" 230 659 basechar 0
AnchorPoint: "Bottom" 228 0 basechar 0
LayerCount: 2
Fore
SplineSet
113 80 m 1
 324 80 l 3
 363 80 380 79 399 127 c 0
 413 127 l 1
 385 0 l 1
 24 0 l 1
 24 28 l 1
 24 28 185 128 185 253 c 26
 185 407 l 3
 185 444 170 450 138 450 c 1
 138 470 l 1
 171 470 252 470 285 470 c 1
 285 425 285 413 285 318 c 3
 285 153 113 80 113 80 c 1
EndSplineSet
EndChar

StartChar: NameMe.88
Encoding: 88 -1 111
Width: 476
VWidth: 0
Flags: W
HStem: -10 21G<183.5 311.5> 443 36<202.473 329.213>
VStem: 24 99<144.679 341.425>
AnchorPoint: "Top" 258 656 basechar 0
AnchorPoint: "Bottom" 263 0 basechar 0
LayerCount: 2
Fore
SplineSet
423 298 m 0
 360 285 352 329 355 371 c 0
 357 399 341 447 249 443 c 0
 217 442 181 418 156 388 c 0
 126 351 123 297 123 235 c 3
 123 147 175 86 236 63 c 0
 268 51 352 25 429 148 c 1
 452 141 l 1
 417 46 368 -10 255 -10 c 3
 112 -10 24 98 24 235 c 0
 24 372 118 474 242 479 c 0
 350 483 384 452 418 420 c 0
 450 389 463 306 423 298 c 0
EndSplineSet
EndChar

StartChar: NameMe.89
Encoding: 89 -1 112
Width: 545
VWidth: 0
Flags: W
HStem: -10 21G<371 446.804> 456 20G<204.5 274>
VStem: 32 92<116.688 321.937> 371 100<64.5595 100 126.922 270 291 660.981>
AnchorPoint: "Top" 136 658 basechar 0
AnchorPoint: "Bottom" 276 0 basechar 0
LayerCount: 2
Fore
SplineSet
313 680 m 1
 449 725 l 0
 471 725 l 1
 471 291 l 2
 471 203 471 100 471 100 c 3
 471 59 495 62 518 67 c 0
 524 41 l 0
 397 -10 l 0
 371 -10 l 0
 371 125 l 1
 379 125 319 -12 202 -11 c 0
 75 -9 34 89 32 191 c 0
 28 396 167 476 242 476 c 3
 306 476 337 445 371 398 c 0
 371 270 l 1
 371 356 301 438 242 435 c 0
 191 432 124 387 124 228 c 0
 124 64 218 37 260 50 c 0
 316 67 355 133 371 163 c 1
 371 163 371 208 371 246 c 2
 371 633 l 0
 370 653 353 672 313 657 c 0
 313 680 l 1
EndSplineSet
EndChar

StartChar: NameMe.90
Encoding: 90 -1 113
Width: 539
VWidth: 0
Flags: W
HStem: 0 20<28 56.3629 195.766 234 328 355.074 489.463 515> 422 23<32 50.2> 460 20G<80.1429 178> 674 21<332 353.033>
VStem: 78 100<29.4191 354.169 370 426.148> 378 100<30.3718 235 419 676.32> 378 0<235 432>
AnchorPoint: "Top" 147 657 basechar 0
AnchorPoint: "Bottom" 283 0 basechar 0
LayerCount: 2
Fore
SplineSet
328 0 m 1xfc
 328 21 l 0
 349 22 378 37 378 72 c 2
 378 627 l 2
 377 683 354 680 332 674 c 0
 322 695 l 1
 455 725 l 0
 478 725 l 1
 478 68 l 0
 478 28 498 20 515 20 c 0
 515 0 l 1
 328 0 l 1xfc
378 235 m 1
 383 432 293 475 178 329 c 1
 178 243 178 71 178 71 c 1
 177 34 200 21 234 20 c 0
 234 0 l 1
 28 0 l 1
 28 20 l 0
 52 21 78 41 78 62 c 0
 78 71 l 1
 78 234 l 1
 78 404 l 0
 78 433 54 427 32 422 c 0
 24 445 l 1
 155 480 l 0
 178 480 l 1
 178 370 l 1
 219 431 255 482 307 478 c 0
 335 476 365 472 378 419 c 1
 378 235 l 1
EndSplineSet
EndChar

StartChar: NameMe.91
Encoding: 91 -1 114
Width: 460
VWidth: 0
Flags: W
HStem: 0 80<150 395>
AnchorPoint: "Top" 235 657 basechar 0
AnchorPoint: "Bottom" 238 0 basechar 0
LayerCount: 2
Fore
SplineSet
319 240 m 2
 150 80 l 2
 347 80 l 0
 397 80 409 100 418 116 c 0
 431 116 l 1
 395 0 l 1
 50 0 l 1
 50 22 l 2
 211 191 l 2
 363 318 288 415 250 427 c 0
 219 437 197 451 117 402 c 0
 89 385 82 370 63 331 c 0
 46 333 l 1
 50 472 l 1
 73 474 l 1
 77 477 92 429 124 451 c 0
 201 503 327 509 384 429 c 0
 432 362 386 291 319 240 c 2
EndSplineSet
EndChar

StartChar: NameMe.92
Encoding: 92 -1 115
Width: 505
VWidth: 0
Flags: W
HStem: -10 21G<194 326> 460 20G<194 326>
VStem: 14 476<98 372>
AnchorPoint: "Top" 282 656 basechar 0
AnchorPoint: "Bottom" 281 0 basechar 0
LayerCount: 2
Fore
SplineSet
116 210 m 0
 132 107 207 20 292 38 c 0
 379 56 407 166 385 277 c 0
 365 379 315 459 222 442 c 0
 137 426 99 322 116 210 c 0
14 235 m 0
 15 372 128 480 260 480 c 0
 392 480 490 372 490 235 c 0
 490 98 392 -10 260 -10 c 0
 128 -10 13 83 14 235 c 0
EndSplineSet
EndChar

StartChar: NameMe.93
Encoding: 93 -1 116
Width: 256
VWidth: 988
Flags: W
HStem: 199 124<81.6639 173.735>
VStem: 66 124<213.33 306.735>
AnchorPoint: "Top" 127 657 basechar 0
AnchorPoint: "Bottom" 129 0 basechar 0
LayerCount: 2
Fore
SplineSet
66 260 m 0
 66 269 68 277 71 285 c 0
 74 293 79 298 84 304 c 0
 89 310 95 315 103 318 c 0
 111 321 118 323 127 323 c 256
 136 323 144 321 152 318 c 0
 160 315 165 310 171 304 c 0
 177 298 182 293 185 285 c 0
 188 277 190 269 190 260 c 0
 190 251 188 243 185 236 c 0
 182 229 177 222 171 216 c 0
 165 210 160 206 152 203 c 0
 144 200 136 199 127 199 c 256
 118 199 111 200 103 203 c 0
 95 206 89 210 84 216 c 0
 79 222 74 229 71 236 c 0
 68 243 66 251 66 260 c 0
EndSplineSet
EndChar

StartChar: NameMe.94
Encoding: 94 -1 117
Width: 250
VWidth: 0
Flags: W
HStem: 0 20<48 80.7246 214.014 238> 422 23<32 53.2>
VStem: 98 100<27.1117 426.008>
AnchorPoint: "Top" 146 656 basechar 0
AnchorPoint: "Bottom" 149 0 basechar 0
LayerCount: 2
Fore
SplineSet
24 445 m 24
 170 480 l 0
 198 480 l 1
 198 480 198 223 198 65 c 27
 198 42 214 21 238 21 c 0
 238 0 l 1
 48 0 l 1
 48 20 l 3
 80 20 98 40 98 66 c 3
 98 194 98 260.932617188 98 379 c 19
 98 408.14453125 103.561523438 439.5078125 32 422 c 0
 24 445 l 24
EndSplineSet
EndChar

StartChar: NameMe.95
Encoding: 95 -1 118
Width: 403
VWidth: 0
Flags: W
HStem: 0 22<215.952 246.383 350.469 378.952> 246 145<42.5679 106.705> 447 23<347.839 375.952>
VStem: 255.952 80<27.5957 414>
LayerCount: 2
Fore
SplineSet
82 391 m 3
 136 391 140.072265625 324.458984375 110 302 c 1
 211 321.836914062 255.952148438 470 255.952148438 470 c 1
 375.952148438 470 l 1
 375.952148438 447 l 3
 349.098632812 447 335.952148438 426 335.952148438 403 c 16
 335.952148438 66 l 3
 335.952148438 50 346.952148438 22 378.952148438 22 c 0
 378.952148438 0 l 1
 215.952148438 0 l 1
 215.952148438 20 l 3
 246.952148438 20 255.952148438 42 255.952148438 66 c 3
 255.952148438 190 255.952148438 414 255.952148438 414 c 1
 255.952148438 414 181.952148438 246 98.9521484375 246 c 3
 55.9521484375 246 24 273 24 312.744140625 c 3
 24 370 57 391 82 391 c 3
EndSplineSet
EndChar

StartChar: NameMe.100
Encoding: 100 -1 119
Width: 475
VWidth: 0
Flags: W
HStem: -255 21<249 295.565 416.908 451> 0 19<24 45.9417 157.973 181> 448 22<415.255 451>
VStem: 300 101<-227.112 402.202>
AnchorPoint: "Top" 348 654 basechar 0
AnchorPoint: "Bottom" 213 0 basechar 0
LayerCount: 2
Fore
SplineSet
451 -255 m 1
 384 -255 316 -255 249 -255 c 1
 249 -234 l 3
 295 -234 300 -231 300 -196 c 0
 300 404 l 0
 150 343 146 128 151 52 c 1
 149 33 159 21 181 19 c 1
 181 0 l 1
 24 0 l 1
 24 21 l 3
 48 21 52 32 59 68 c 2
 59 68 77 180 88 218 c 0
 122 333 196 470 353 470 c 0
 353 470 417 470 451 470 c 1
 451 448 l 0
 427 447 401 442 401 396 c 0
 401 -167 l 3
 401 -204 405 -233 451 -233 c 0
 451 -255 l 1
EndSplineSet
EndChar

StartChar: NameMe.101
Encoding: 101 -1 120
Width: 549
VWidth: 0
Flags: W
HStem: -255 19<325 354.332 495.349 525> -10 80<151.5 258.403> 450 20<24 60.25 316 356.625>
VStem: 75 99<98.8557 443.867> 374 100<-227.083 132 143.03 442.296>
AnchorPoint: "Top" 270 657 basechar 0
AnchorPoint: "Bottom" 221 0 basechar 0
LayerCount: 2
Fore
SplineSet
474 470 m 1
 475 -189 l 1
 475 -209 489 -235 525 -235 c 0
 525 -255 l 0
 427 -255 l 0
 325 -255 l 0
 325 -236 l 3
 358 -236 375 -207 375 -191 c 3
 375 -83 374 132 374 132 c 1
 300 32 245 -10 190 -10 c 0
 113 -10 76 47 75 203 c 2
 74 415 l 0
 74 438 54 448 24 449 c 0
 24 470 l 1
 174 470 l 9
 174 202 l 1
 174 149 187 70 239 70 c 0
 292 70 337 128 374 166 c 0
 374 412 l 0
 374 436 347 450 316 450 c 0
 316 470 l 1
 474 470 l 1
EndSplineSet
EndChar

StartChar: NameMe.102
Encoding: 102 -1 121
Width: 502
VWidth: 0
Flags: W
HStem: -255 18<273 303.068 448.954 477> 0 23<27 69.6331 188.398 233> 414 56<293.373 328> 435 22<28 64.7826> 452 18<447.561 478> 460 20G<41.4783 177>
VStem: 77 100<27.8639 300.075 304 437.961> 327 101<-226.931 413.405>
AnchorPoint: "Top" 282 657 basechar 0
AnchorPoint: "Bottom" 219 0 basechar 0
LayerCount: 2
Fore
SplineSet
477 -255 m 5xcb
 352 -255 l 4
 273 -255 l 5
 273 -236 l 7
 310 -236 327 -209 327 -185 c 4
 328 42 328 414 328 414 c 4xe3
 264 412 209 333 177 258 c 5
 177 70 l 7
 177 25 203 24 233 23 c 4
 233 0 l 5
 27 0 l 5
 27 20 l 7
 48 20 77 29 77 52 c 31
 77 185 77 404 77 404 c 4
 77 446 54 439 28 435 c 4
 24 457 l 5
 158 480 l 4
 177 480 l 5xd7
 177 304 l 5
 208 391 284 470 370 470 c 4
 370 470 444 470 478 470 c 5
 478 452 l 4
 456 452 428 437 428 411 c 4
 428 -182 l 4
 428 -210 444 -237 477 -237 c 4
 477 -255 l 5xcb
EndSplineSet
EndChar

StartChar: NameMe.103
Encoding: 103 -1 122
Width: 425
VWidth: 0
Flags: W
HStem: 0 25<106 137.631 251.246 286> 438 32<83.7095 262>
VStem: 24 29<343 401.454> 144 100<27.2043 240.521>
AnchorPoint: "Top" 208 658 basechar 0
AnchorPoint: "Bottom" 203 0 basechar 0
LayerCount: 2
Fore
SplineSet
262 438 m 1
 121 438 l 3
 82 438 53 395 53 343 c 0
 24 343 l 1
 24 470 l 1
 394 470 l 1
 394 442 l 1
 394 442 244 303 244 178 c 26
 244 63 l 3
 244 34 261 24 286 24 c 1
 286 0 l 1
 253 0 139 0 106 0 c 1
 106 25 l 3
 131 25 144 34 144 64 c 0
 144 64 144 55 144 113 c 3
 144 278 262 438 262 438 c 1
EndSplineSet
EndChar

StartChar: NameMe.104
Encoding: 104 -1 123
Width: 472
VWidth: 0
Flags: W
HStem: -10 64<124.524 243.149> 448 34<155.835 271.429> 452 20G<44.2357 85.5152>
VStem: 39 24<315 356.015> 45 29<441.589 472> 348 99<156.436 347.67>
AnchorPoint: "Top" 246 656 basechar 0
AnchorPoint: "Bottom" 233 0 basechar 0
LayerCount: 2
Fore
SplineSet
39 315 m 1xd4
 45 472 l 1
 74 472 l 1xac
 74 472 84 439 93 439 c 0
 108 439 164 482 236 482 c 3
 360 482 447 372 447 235 c 3
 447 98 360 -10 217 -10 c 0
 105 -10 67 51 24 144 c 1
 46 151 l 1
 59 95 114 52 173 54 c 0
 265 57 348 144 348 235 c 3
 348 292 346 341 321 382 c 0
 295 425 253 448 219 448 c 3
 127 448 67 374 63 311 c 0
 39 315 l 1xd4
EndSplineSet
EndChar

StartChar: NameMe.105
Encoding: 105 -1 124
Width: 551
VWidth: 0
Flags: W
HStem: -255 25<24 64.5 200.364 244> -6 496<258 392> 460 20G<109.231 181>
VStem: 81 100<-219.86 72 179 365.082 377 407.907> 438 89<147.984 349.6>
AnchorPoint: "Top" 282 658 basechar 0
AnchorPoint: "Bottom" 341 0 basechar 0
LayerCount: 2
Fore
SplineSet
244 -255 m 1xd8
 99 -255 l 0
 24 -255 l 1
 24 -230 l 0
 58 -229 79 -221 81 -166 c 0
 81 179 l 2
 81 267 81 380 81 380 c 1
 87 421 57 407 34 402 c 0
 28 428 l 0
 160 480 l 0
 181 480 l 0xb8
 181 377 l 1
 181 377 258 490 350 490 c 0
 477 490 525 381 527 279 c 0
 531 74 392 -6 317 -6 c 3
 253 -6 215 25 181 72 c 0
 181 200 l 1
 181 114 251 32 310 35 c 0
 361 38 435 73 438 232 c 0
 441 406 336 426 292 420 c 0
 250 414 210 381 181 339 c 1
 181 339 181 262 181 224 c 2
 181 -163 l 3
 181 -208 198 -230 244 -230 c 0
 244 -255 l 1xd8
EndSplineSet
EndChar

StartChar: NameMe.106
Encoding: 106 -1 125
Width: 552
VWidth: 0
Flags: W
HStem: -255 19<24 49.4425 192.872 219> -10 21G<233 271 374 471.857> 25 23<501.8 520> 450 20<37 62.5367 318 356.234>
VStem: 74 100<-224.236 34 70 447.257> 374 100<43.8516 100 118.991 442.62>
AnchorPoint: "Top" 274 658 basechar 0
AnchorPoint: "Bottom" 348 0 basechar 0
LayerCount: 2
Fore
SplineSet
174 470 m 17
 174 218 l 2
 174 70 l 2
 174 -96 l 0
 174 -102 l 0
 174 -167 l 0
 174 -223 196 -235 219 -235 c 0
 219 -255 l 1
 24 -255 l 0
 24 -236 l 3
 50 -236 75 -209 74 -165 c 1
 74 402 l 0
 74 442 54 450 37 450 c 0
 37 470 l 1
 174 470 l 17
174 218 m 2
 170 11 279 16 374 141 c 1
 374 227 374 399 374 399 c 1
 375 436 352 449 318 450 c 0
 318 470 l 1
 474 470 l 25
 474 399 l 1
 474 236 l 1
 474 66 l 0
 474 37 498 43 520 48 c 0
 528 25 l 1
 397 -10 l 0
 374 -10 l 1
 374 100 l 1
 333 39 297 -8 245 -8 c 3
 221 -8 174 0 174 34 c 0
 174 218 l 2
EndSplineSet
EndChar

StartChar: NameMe.107
Encoding: 107 -1 126
Width: 430
VWidth: 0
Flags: W
HStem: -10 27<173.291 279.634> 436 34<64.6247 287>
VStem: 25 22<354 408.496>
AnchorPoint: "Top" 202 657 basechar 0
AnchorPoint: "Bottom" 205 0 basechar 0
LayerCount: 2
Fore
SplineSet
106 258 m 0
 287 436 l 1
 100 436 l 0
 50 436 48 377 47 354 c 0
 25 354 l 1
 25 470 l 1
 405 470 l 1
 405 448 l 2
 196 208 l 2
 85 112 145 17 218 17 c 3
 350 17 273 111 334 111 c 3
 362 111 382 86 382 60 c 0
 382 18 270 -10 216 -10 c 3
 154 -10 112 0 72 44 c 0
 12 111 43 209 106 258 c 0
EndSplineSet
EndChar

StartChar: NameMe.110
Encoding: 110 -1 127
Width: 598
VWidth: 0
Flags: W
HStem: 0 28<24 80.0047 127.183 194 350 401.113 514.934 574> 449 21G<262.431 332.468>
AnchorPoint: "Top" 253 658 basechar 0
AnchorPoint: "Bottom" 244 0 basechar 0
LayerCount: 2
Fore
SplineSet
264.5 377.674804688 m 1
 128.93359375 68 l 2
 110.737304688 26 153.455078125 30.46875 194 30 c 0
 195 0 l 1
 24 0 l 1
 24 30 l 19
 60.7705078125 30 81.6298828125 28.015625 101.33203125 74 c 2
 271 470 l 1
 324 470 l 2
 495.90234375 64 l 0
 515.975585938 28.068359375 546 28 574 28 c 0
 574 0 l 1
 350 0 l 1
 349.787109375 28 l 3
 370 28 414.314453125 22.7607421875 398.467773438 60 c 2
 264.5 377.674804688 l 1
EndSplineSet
EndChar

StartChar: NameMe.111
Encoding: 111 -1 128
Width: 598
VWidth: 0
Flags: W
HStem: 0 21G<206.84 302.2> 480 20G<11 86.5 427 499>
AnchorPoint: "Bottom" 256 0 basechar 0
AnchorPoint: "Top" 256 658 basechar 0
LayerCount: 2
Fore
SplineSet
333.5 92.3251953125 m 1
 469.06640625 402 l 2
 487.262695312 444 444.544921875 439.53125 404 440 c 0
 403 470 l 1
 574 470 l 1
 574 440 l 19
 537.229492188 440 516.370117188 441.984375 496.66796875 396 c 2
 327 0 l 1
 274 0 l 2
 102.09765625 406 l 0
 82.0244140625 441.931640625 52 442 24 442 c 0
 24 470 l 1
 248 470 l 1
 248.212890625 442 l 3
 228 442 183.685546875 447.239257812 199.532226562 410 c 2
 333.5 92.3251953125 l 1
EndSplineSet
EndChar

StartChar: NameMe.123
Encoding: 123 -1 129
Width: 466
Flags: W
HStem: -10 72<204.915 325.817> 447 25<135.529 327>
VStem: 54 19<349 380.125> 80 88<96.3146 207.45>
AnchorPoint: "Top" 201 657 basechar 0
AnchorPoint: "Bottom" 200 0 basechar 0
LayerCount: 2
Fore
SplineSet
422 457 m 5
 422 472 l 5
 57 472 l 5
 54 349 l 5
 73 349 l 5
 82 423 161 447 161 447 c 6
 341 447 l 5
 261 344 70 265 70 130 c 7
 70 49 155.000044772 -9.91275790965 240 -10 c 4
 343.807207051 -10.1065454413 406.482599338 67.0343696821 446 155 c 5
 435 162 l 5
 401.119838763 109.994015207 354.918898648 62 285 62 c 7
 226.999632335 62 158.102539062 101 158.102539062 152 c 7
 158.102539062 252 340.89947213 339.447168886 422 457 c 5
EndSplineSet
EndChar

StartChar: NameMe.139
Encoding: 139 -1 130
Width: 466
Flags: HW
AnchorPoint: "Bottom" 200 0 basechar 0
AnchorPoint: "Top" 201 657 basechar 0
LayerCount: 2
Fore
SplineSet
61 157 m 7
 61 65.5766423358 124 -10 214 -10 c 4
 235 -10 257 -6 286 1 c 4
 311 7 324 9 335 9 c 4
 348 9 353 7 360 -4 c 5
 374 -4 l 5
 374 163 l 5
 357 163 l 5
 332 54 295 14 221 14 c 4
 166 14 140 84.6884765625 140 150 c 7
 140 255.883084682 218.122825383 313.254340538 287 432 c 5
 336.963923589 427.762523206 359.718564843 393.678252148 375 333 c 5
 392 333 l 5
 376 472 l 5
 57 472 l 5
 54 349 l 5
 73 349 l 5
 82 423 161 447 161 447 c 6
 268 447 l 5
 147.564682719 343.108735713 61.1332238417 291.419047569 61 157 c 7
EndSplineSet
EndChar

StartChar: NameMe.155
Encoding: 155 -1 131
Width: 466
Flags: HW
AnchorPoint: "Bottom" 200 0 basechar 0
AnchorPoint: "Top" 201 657 basechar 0
LayerCount: 2
Fore
SplineSet
61 132 m 4
 61 40.576171875 124 -10 214 -10 c 7
 356.184293644 -10 402.996301163 67.1018124072 446 155 c 5
 435 162 l 5
 379.938766455 93.6166655774 334.448242188 62 268 62 c 7
 181.751953125 62 154 103.989257812 154 160 c 7
 154 250.25 359.521484375 380.9296875 432 457 c 5
 432 472 l 5
 57 472 l 5
 54 349 l 5
 73 349 l 5
 82 423 161 447 161 447 c 6
 346 447 l 5
 194.720703125 309.095703125 60.9599609375 243.446289062 61 132 c 4
EndSplineSet
EndChar

StartChar: yhy.cas
Encoding: 67 -1 132
Width: 284
Flags: WO
HStem: 0 15<29 73.8425 221.198 266> 457 15<226.557 270>
VStem: 108 84<28.8841 443.496>
AnchorPoint: "Top" 152 656 basechar 0
AnchorPoint: "Bottom" 155 0 basechar 0
LayerCount: 2
Fore
SplineSet
109 472 m 2
 270 472 l 1
 270 457 l 1
 208 453 194 439 193 385 c 1
 192 102 l 2
 191.7421875 29.0009765625 200 20 266 15 c 1
 266 0 l 1
 29 0 l 1
 29 15 l 1
 97 18 107.827148438 38 108 102 c 2
 109 472 l 2
EndSplineSet
EndChar
